<svg width="24" height="24" viewBox="0 0 24 24" fill="none" xmlns="http://www.w3.org/2000/svg">
<path d="M2.77148 4.86792C3.00586 4.54565 3.44531 4.48706 3.73828 4.75073L21.082 18.3445C21.4043 18.5789 21.4629 19.0183 21.1992 19.3113C20.9648 19.6335 20.5254 19.6921 20.2324 19.4285L2.88867 5.83472C2.56641 5.60034 2.50781 5.16089 2.77148 4.86792Z" fill="#FCFEFF"/>
<path d="M16.0723 10.0535L15.5449 9.52612C15.3984 9.37964 15.252 9.32104 15.0762 9.29175C15.0176 9.29175 14.9883 9.26245 14.959 9.26245C14.4902 9.26245 14.1094 9.64331 14.1094 10.1121V11.2253V11.3132V13.0125C14.1094 13.6863 13.6113 14.1843 12.9375 14.1843C12.293 14.1843 11.7656 13.6863 11.7656 13.0125V12.6023C11.7656 12.28 11.8828 11.9285 12.0879 11.6648L12.7031 10.8445L13.0254 10.405C13.1133 10.3171 13.1719 10.2 13.2305 10.1121C13.582 9.52612 13.7871 8.88159 13.7871 8.20776C13.7871 8.09058 13.7871 7.97339 13.7578 7.8562V7.53394C13.6992 6.83081 13.4355 6.15698 12.9961 5.60034L12.7031 5.21948L12.4395 4.83862C12.3223 4.69214 12.1172 4.57495 11.9414 4.57495C11.5898 4.57495 11.2969 4.86792 11.2969 5.21948V5.68823V5.86401C11.2969 6.24487 11.1504 6.62573 10.8867 6.8894L8.57227 9.05737C7.19531 10.405 6.375 12.2507 6.375 14.1843C6.375 17.1726 8.80664 19.575 11.7949 19.575H12.2344C15.2227 19.575 17.625 17.1726 17.625 14.1843V13.8621C17.625 12.4265 17.0684 11.0496 16.0723 10.0535ZM15.5156 11.6062V11.5769C15.9844 12.2507 16.2188 13.0417 16.2188 13.8621V14.1843C16.2188 16.3816 14.4316 18.1687 12.2344 18.1687H11.7949C9.59766 18.1687 7.78125 16.3816 7.78125 14.1843C7.78125 12.6316 8.42578 11.1375 9.53906 10.0828L11.8535 7.8855L10.8867 6.8894L11.8535 7.8855C12.0293 7.73901 12.1758 7.53394 12.293 7.32886C12.3223 7.44604 12.3223 7.56323 12.3516 7.65112L12.3809 7.97339C12.4102 8.53003 12.2637 9.11597 11.9121 9.58472L10.9746 10.8152C10.5938 11.3425 10.3594 11.9578 10.3594 12.6023V13.0125C10.3594 14.448 11.5312 15.5906 12.9375 15.5906C14.373 15.5906 15.5156 14.448 15.5156 13.0125V11.6062Z" fill="#FCFEFF"/>
</svg>
