<svg xmlns="http://www.w3.org/2000/svg" fill="none" viewBox="0 0 447 550" height="550" width="447">
<mask height="524" width="408" y="26" x="0" maskUnits="userSpaceOnUse" style="mask-type:alpha" id="mask0_3235_9674">
<g clip-path="url(#clip0_3235_9674)">
<path fill="white" d="M193.371 48.2457L195.366 47.3491L196.792 47.2748L197.727 47.3803L199.327 48.9236L200.622 50.5471L202.288 52.5683C202.288 52.5683 203.376 53.4027 203.548 53.4824C203.72 53.5621 204.915 53.9321 205.1 53.8927C205.285 53.8533 206.851 53.5595 206.851 53.5595C206.851 53.5595 207.546 53.1676 207.957 53.214C208.368 53.2603 209.145 53.7037 209.145 53.7037C209.145 53.7037 209.849 54.7902 209.889 54.9696C209.929 55.149 210.679 56.3613 210.679 56.3613L211.263 56.4272L211.985 55.7971L212.782 56.0618L213.439 57.0827L214.381 58.1961L215.251 59.4159L215.782 60.4829C215.782 60.4829 216.081 60.987 216.306 61.0728C216.532 61.1585 216.923 61.3776 217.096 61.3971C217.269 61.4165 218.264 62.0595 218.43 62.1385C218.596 62.2176 218.915 62.549 219.194 62.695C219.473 62.8411 219.698 62.9269 220.129 63.3313C220.56 63.7357 220.535 63.9077 221.019 64.3784C221.502 64.8491 221.55 64.9087 222.147 65.3921C222.744 65.8756 223.42 66.1871 223.859 66.4717C224.297 66.7564 224.496 67.1346 225.066 67.3195C225.636 67.5045 225.843 67.7629 226.499 67.7164C227.156 67.6699 227.017 67.8351 227.467 67.5301C227.918 67.2252 228.833 66.4419 228.971 66.2826C229.11 66.1234 229.349 66.09 229.687 65.7121C230.025 65.3341 231.159 64.2197 231.159 64.2197C231.159 64.2197 231.855 64.3585 232.027 64.378C232.2 64.3975 233.208 64.9273 233.381 64.9468C233.554 64.9663 234.336 65.4103 234.422 65.1848C234.508 64.9593 234.892 64.1705 234.892 64.1705L235.873 64.4018L236.385 65.1108L237.214 65.0837L237.857 64.6256L239.33 64.6711C239.33 64.6711 240.324 64.7833 240.669 64.8825C241.014 64.9817 241.863 65.3127 242.076 65.5116C242.289 65.7105 243.191 67.1752 243.191 67.1752C243.191 67.1752 243.49 68.216 243.498 68.627C243.506 69.0379 242.929 71.0474 242.929 71.0474C242.929 71.0474 243.121 72.0761 243.082 72.3672C243.043 72.6583 243.143 72.8444 243.368 73.4669C243.594 74.0893 243.588 75.2043 243.588 75.2043C243.588 75.2043 244.054 75.7875 244.259 76.1061C244.464 76.4248 245.321 77.1727 245.712 77.3918C246.104 77.6108 247.159 78.2062 247.372 78.4051C247.584 78.604 247.989 78.7099 248.42 79.0541C248.852 79.3983 249.781 80.0941 249.781 80.0941L250.365 81.2274L250.266 82.1027C250.247 82.2754 249.584 82.9122 249.584 82.9122C249.584 82.9122 248.907 83.1314 248.948 83.3108C248.988 83.4902 249.048 83.9734 249.048 83.9734L250.474 84.4298C250.474 84.4298 250.812 84.5886 251.084 84.7942C251.357 84.9998 251.861 85.7683 252.027 85.9075C252.192 86.0468 251.902 87.0151 251.902 87.0151C251.902 87.0151 251.63 87.871 251.445 87.9103C251.259 87.9497 250.251 88.5476 250.251 88.5476C250.251 88.5476 249.907 88.9791 249.939 89.224C249.972 89.4689 250 90.2379 250.219 90.4375C250.437 90.6371 250.537 90.7689 250.743 91.0274C250.949 91.2858 251.016 91.233 251.168 91.4311C251.321 91.6292 252.044 92.5973 252.044 92.5973C252.044 92.5973 252.224 93.6246 252.257 93.8636C252.29 94.1026 252.57 95.2618 252.59 95.6139C252.611 95.966 252.2 96.987 252.4 97.305C252.599 97.623 252.448 98.4321 252.666 98.6376C252.884 98.8431 253.429 99.1941 253.761 99.4124C254.092 99.6307 254.524 99.9689 254.796 100.18C255.068 100.392 255.784 100.883 255.784 100.883L255.646 102.11L255.095 102.819L255.792 103.489C255.792 103.489 256.349 103.256 256.608 103.581C256.867 103.906 257.199 104.655 257.179 104.827C257.16 105 256.53 105.345 256.53 105.345C256.53 105.345 255.933 105.929 255.913 106.102C255.894 106.275 256.047 107.003 256.047 107.003L256.466 107.997L258.336 108.208L259.277 107.724L259.607 104.806C259.607 104.806 259.898 104.308 260.09 104.209C260.282 104.11 260.799 103.698 260.799 103.698L262.033 103.246L262.65 103.551L263.366 104.048C263.366 104.048 263.923 104.346 264.102 104.366L265.097 104.478L266.071 104.233L266.774 104.312L267.843 104.788L268.281 105.609L269.303 106.497C269.303 106.497 269.86 107.331 269.9 107.511C269.94 107.69 270.053 108.24 270.312 108.564C270.571 108.889 271.42 109.757 271.786 110.208C272.151 110.659 272.914 111.222 273.027 111.765C273.141 112.309 273.387 112.753 273.407 113.641C273.427 114.53 273.003 113.536 273.514 115.312C274.025 117.088 274.105 116.916 274.291 117.353C274.477 117.79 274.08 119.223 274.08 119.223L273.905 121.688L274.349 123.101C274.349 123.101 274.913 123.876 275.185 124.082C275.457 124.287 276.314 125.626 276.48 125.705C276.646 125.784 277.833 125.798 278.058 125.883C278.284 125.969 279.606 126.329 279.635 126.079C279.663 125.829 279.881 124.967 279.794 124.662C279.708 124.357 279.263 123.595 279.263 123.595L278.706 122.23L278.864 120.293C278.864 120.293 278.876 119.113 278.929 118.643C278.982 118.172 278.935 117.522 278.795 117.21C278.655 116.899 278.111 115.951 278.111 115.951C278.111 115.951 277.109 115.368 277.327 115.036C277.546 114.705 277.817 113.319 277.817 113.319C277.817 113.319 277.915 111.913 278.054 111.747C278.194 111.582 278.915 110.958 278.915 110.958L279.824 110.765L280.606 110.678C280.606 110.678 281.667 111.214 281.953 111.301C282.239 111.387 282.75 111.566 282.935 111.532C283.119 111.499 283.04 110.597 283.04 110.597L283.236 109.552L281.786 108.616C281.786 108.616 281.228 108.318 280.704 108.259C280.18 108.2 278.734 108.393 278.734 108.393L278.177 108.625L277.918 107.233L278.261 104.727C278.261 104.727 278.586 104.468 278.931 104.031C279.276 103.593 279.043 103.573 279.534 103.387C280.026 103.202 279.859 103.128 280.92 103.188C281.981 103.247 282.85 103.406 282.85 103.406C282.85 103.406 283.628 104.205 283.81 104.521C283.991 104.837 283.619 106.212 283.619 106.212L284.04 106.495L284.359 107.833L284.665 108.815L285.156 110.233L285.463 111.685C285.463 111.685 285.291 112.672 285.305 113.084C285.319 113.496 285.114 114.775 285.114 114.775L285.732 116.147C285.732 116.147 286.038 117.599 286.125 117.904C286.211 118.21 286.783 119.396 286.763 119.574C286.742 119.753 286.843 120.41 286.989 120.722C287.135 121.034 287.76 122.286 287.906 122.538C288.053 122.789 288.444 123.015 288.444 123.015C288.444 123.015 288.941 122.775 289.139 122.623C289.337 122.47 289.232 122.338 289.271 121.455C289.31 120.573 289.29 120.215 289.197 120.03C289.103 119.844 288.526 119.128 288.493 118.943C288.459 118.759 288.18 118.022 288.207 117.79C288.233 117.557 288.219 116.609 288.305 116.383C288.391 116.158 288.529 114.931 288.529 114.931C288.529 114.931 288.004 114.341 287.972 114.096C287.939 113.852 287.282 113.367 287.282 113.367L287.626 111.868C287.626 111.868 287.718 111.583 287.984 111.318C288.249 111.052 288.719 110.575 288.905 110.475C289.091 110.375 289.735 110.448 290.026 110.481C290.318 110.514 291.008 110.712 291.234 110.792C291.46 110.872 292.832 110.797 292.832 110.797L293.262 109.604L292.757 108.304L292.815 106.242C292.815 106.242 293.265 105.407 293.39 104.83C293.516 104.253 293.999 103.126 293.999 103.126C293.999 103.126 294.987 102.767 295.166 102.727C295.345 102.686 296.837 102.62 297.069 102.646C297.302 102.672 297.978 102.983 298.144 103.063C298.31 103.142 299.179 103.354 299.498 103.631C299.816 103.908 300.075 104.287 300.115 104.473C300.154 104.658 300.52 105.049 300.52 105.049C300.52 105.049 300.938 105.512 301.111 105.586C301.284 105.66 301.96 105.917 302.16 106.235C302.359 106.553 302.671 107.475 302.804 107.846C302.938 108.217 303.296 108.727 303.555 109.052C303.814 109.377 304.789 110.198 304.942 110.391C305.096 110.583 305.851 111.265 306.05 111.583C306.25 111.901 307.179 113.127 307.179 113.127L307.366 114.626L308.566 114.466C308.566 114.466 309.741 114.538 309.913 114.618C310.085 114.697 310.941 114.969 310.941 114.969C310.941 114.969 311.054 115.512 311.153 115.705C311.252 115.897 311.591 116.526 311.591 116.526C311.591 116.526 311.725 116.897 311.89 117.03C312.056 117.163 312.382 117.381 312.613 117.467C312.845 117.554 313.19 117.593 313.19 117.593L314.039 116.917C314.536 116.677 315.259 117.114 315.299 117.294C315.339 117.473 315.253 117.705 315.253 117.705L316.155 117.035C316.155 117.035 316.002 116.306 316.253 116.159C316.505 116.013 316.651 115.788 316.903 115.642C317.155 115.495 317.36 115.277 317.539 115.243C317.718 115.209 318.375 115.162 318.375 115.162C318.375 115.162 318.693 115.494 318.846 115.686C319 115.878 319.311 116.269 319.291 116.448L319.205 117.21C319.166 117.561 319.08 117.787 319.346 118.052C319.611 118.317 319.777 118.396 319.93 118.648C320.082 118.901 320.156 119.265 320.156 119.265L319.785 119.935C319.785 119.935 318.929 120.194 318.75 120.174C318.572 120.154 317.888 119.956 317.649 119.989C317.41 120.023 317.305 121.488 317.305 121.488L316.536 121.993C316.536 121.993 316.352 123.093 316.312 123.445C316.273 123.796 316.168 125.792 316.168 125.792C316.168 125.792 315.984 126.893 315.997 127.311C316.01 127.728 315.858 128.537 315.793 129.121C315.727 129.705 315.755 129.455 315.546 130.239C315.337 131.023 315.33 131.614 315.364 131.853C315.397 132.092 315.365 133.391 315.365 133.391C315.365 133.391 316.235 134.08 316.274 134.265C316.313 134.45 316.467 134.643 316.533 135.12C316.6 135.598 316.733 136.506 316.581 136.784C316.429 137.063 316.097 137.381 315.713 137.633C315.329 137.885 314.699 138.23 314.513 138.324C314.328 138.418 312.81 139.253 312.81 139.253L311.982 140.282C311.982 140.282 311.525 141.177 311.439 141.402C311.353 141.628 310.969 142.948 310.969 142.948L309.876 144.241L308.717 145.057L307.503 145.867L306.88 146.683C306.88 146.683 305.999 147.651 305.973 147.884C305.947 148.116 305.907 149.535 305.907 149.535L305.617 151.04L305.186 151.703C305.186 151.703 304.642 151.816 304.616 152.054C304.589 152.293 304.709 152.777 304.69 152.949C304.67 153.122 304.962 153.692 304.962 153.692C304.962 153.692 305.168 153.95 305.135 154.242L304.944 155.933C304.944 155.933 304.818 155.979 304.945 156.464C305.071 156.948 305.423 157.464 305.423 157.464L305.98 158.299L305.576 158.724C305.576 158.724 304.462 158.658 304.489 158.897C304.516 159.135 304.549 159.434 304.814 159.705C305.079 159.976 305.418 160.129 305.643 160.215C305.869 160.301 306.194 160.573 306.115 160.739C306.036 160.905 305.307 161.594 305.307 161.594C305.307 161.594 304.829 161.661 304.598 162.105C304.367 162.549 304.062 163.166 304.062 163.166C304.062 163.166 303.937 164.274 303.95 164.692C303.963 165.109 304.601 166.243 304.635 166.481C304.668 166.72 305.073 167.303 305.146 167.721C305.22 168.14 305.353 169.578 305.367 169.935C305.381 170.292 305.528 171.666 305.415 172.13C305.303 172.593 305.137 173.045 304.998 173.741C304.859 174.437 303.528 176.826 303.528 176.826C303.528 176.826 302.647 177.793 302.441 178.066C302.236 178.338 301.904 178.656 301.825 178.822C301.746 178.988 300.519 179.917 300.519 179.917C300.519 179.917 299.564 180.521 299.26 180.601C298.955 180.682 298.689 180.953 298.385 181.033C298.08 181.114 297.317 181.034 297.125 181.187C296.932 181.34 297.185 182.201 297.185 182.201L296.641 182.851C296.641 182.851 296.178 183.269 295.998 183.309C295.819 183.349 294.898 183.601 294.665 183.575C294.433 183.549 293.856 183.423 293.438 183.436C293.021 183.45 292.868 183.251 292.092 183.285C291.316 183.318 290.453 183.112 290.453 183.112C290.453 183.112 289.878 182.968 289.573 183.055C289.267 183.141 288.591 183.36 288.398 183.519C288.205 183.678 287.649 183.851 287.397 183.997C287.145 184.144 286.582 184.376 286.39 184.535C286.197 184.694 285.628 184.98 285.448 185.02C285.269 185.06 284.34 184.895 284.34 184.895C284.34 184.895 284.016 185.148 283.754 184.853C283.491 184.558 283.245 183.052 283.271 182.82C283.297 182.588 283.596 182.561 283.178 182.098C282.76 181.635 282.673 181.329 282.501 181.25C282.329 181.17 282.117 180.971 281.944 180.952C281.771 180.932 281.055 180.972 281.055 180.972L280.398 181.549L279.995 181.974C279.995 181.974 280.201 182.233 280.3 182.425C280.399 182.617 280.645 183.055 280.798 183.253L280.951 183.445C280.951 183.445 281.518 184.727 281.693 184.729C281.867 184.73 281.868 185.798 281.868 185.798L281.543 186.587C281.543 186.587 281.093 186.892 280.96 187.052C280.827 187.212 280.51 187.888 280.51 187.888C280.51 187.888 280.835 188.16 280.975 188.471C281.115 188.782 281.155 189.498 281.076 189.664C280.997 189.83 280.552 190.612 280.552 190.612L279.419 191.196C279.419 191.196 278.868 191.369 278.716 191.647C278.564 191.926 278.292 192.251 278.326 192.49C278.359 192.729 278.545 193.166 278.824 193.318C279.102 193.47 279.6 193.761 279.838 193.788C280.076 193.815 280.925 193.615 281.184 193.94C281.443 194.265 281.609 194.344 281.948 194.497C282.287 194.649 282.319 194.364 282.883 194.602C283.447 194.841 283.414 195.132 284.047 194.764C284.68 194.395 284.799 194.408 285.177 194.21C285.556 194.011 285.675 193.97 286.053 193.778C286.43 193.585 286.808 193.393 287.332 193.452C287.856 193.511 289.494 193.696 289.66 193.775C289.826 193.854 290.317 194.265 290.92 194.689C291.524 195.113 291.61 194.887 292.121 195.596C292.632 196.305 293.25 197.14 293.476 197.757C293.702 198.373 293.814 198.446 293.789 199.155C293.763 199.864 293.669 199.142 293.769 199.865C293.868 200.587 293.657 201.39 293.657 201.39L292.81 203.127L292.12 203.996C292.12 203.996 291.63 204.653 291.305 204.912C290.981 205.17 290.351 205.515 290.092 205.721C289.834 205.927 289.721 205.854 289.33 206.166C288.939 206.478 288.316 206.763 288.316 206.763L287.003 207.387C287.003 207.387 286.751 207.534 286.664 207.765C286.578 207.997 286.479 208.335 286.479 208.335C286.479 208.335 286.254 208.78 286.48 208.866C286.705 208.952 286.434 208.74 287.123 208.938C287.813 209.137 287.538 208.949 288.057 209.056C288.576 209.163 288.659 209.498 289.048 209.204C289.437 208.91 289.364 209.016 290.193 208.519C291.021 208.021 291.148 207.915 291.452 207.835C291.757 207.755 292.241 207.689 292.606 207.549C292.972 207.409 293.163 207.316 293.342 207.336C293.521 207.357 294.264 207.561 294.55 207.647C294.836 207.734 295.226 207.959 295.412 207.865C295.597 207.772 296.194 207.242 296.28 207.016C296.366 206.791 296.664 206.234 296.903 206.2C297.142 206.167 297.685 206.114 297.685 206.114C297.685 206.114 297.99 206.027 298.447 206.2C298.904 206.372 299.203 206.345 299.402 206.663C299.602 206.981 299.316 206.358 299.602 206.981C299.887 207.604 300.099 207.809 300.04 208.333C299.981 208.857 299.856 209.434 299.703 209.773C299.55 210.111 298.935 210.808 298.935 210.808L299.718 211.722C299.718 211.722 299.97 212.106 300.216 212.55C300.461 212.994 300.734 213.2 300.767 213.439C300.801 213.678 300.98 214.174 300.947 214.466C300.914 214.758 300.861 215.759 300.835 215.991C300.809 216.223 300.504 217.371 300.504 217.371L299.67 217.928C299.67 217.928 299.364 218.014 299.226 218.173C299.087 218.333 298.749 218.711 298.828 219.075C298.908 219.44 298.729 219.42 299.021 219.984C299.314 220.547 299.539 220.633 299.678 221.005C299.817 221.376 299.844 220.607 299.811 221.375C299.779 222.144 299.938 222.337 299.6 222.714C299.262 223.092 298.083 224.081 298.083 224.081L296.796 225.003C296.796 225.003 296.803 224.944 296.18 225.229C295.556 225.515 294.688 226.364 294.688 226.364C294.688 226.364 293.839 226.563 293.641 226.716C293.443 226.868 293.224 226.729 293.104 227.307C292.985 227.884 292.952 228.652 292.867 228.878C292.781 229.103 293.02 229.07 292.562 229.495C292.104 229.919 291.892 230.191 291.574 230.39C291.256 230.59 291.156 230.404 290.931 230.849L290.706 231.294C290.706 231.294 290.462 232.388 290.442 232.566C290.422 232.745 290.661 233.773 290.661 233.773C290.661 233.773 290.801 234.084 290.616 234.715C290.43 235.345 290.146 236.26 289.981 236.651C289.816 237.043 289.875 237.055 289.716 237.448C289.557 237.84 289.055 239.622 289.055 239.622C289.055 239.622 288.69 240.232 288.399 240.73C288.107 241.228 287.981 241.274 287.538 242.05C287.095 242.826 286.644 243.662 286.399 244.286C286.154 244.909 286.366 244.047 286.055 245.254L285.743 246.461L284.784 248.126L283.763 249.313C283.763 249.313 283.333 250.507 283.187 250.726C283.042 250.945 282.922 250.991 282.498 251.595C282.074 252.198 281.392 253.008 281.392 253.008C281.392 253.008 280.729 253.108 280.59 253.273C280.45 253.438 280.212 253.466 280.179 253.757C280.146 254.049 280.067 254.215 280.166 254.407C280.265 254.599 280.498 254.62 280.651 254.818L280.804 255.01L280.527 256.396L279.897 256.741C279.897 256.741 279.618 257.126 279.592 257.358C279.566 257.59 279.559 258.18 279.652 258.372C279.745 258.563 280.024 258.769 280.058 258.948C280.092 259.127 280.158 259.134 280.264 259.743C280.37 260.352 280.483 260.419 280.503 260.777C280.523 261.135 280.543 261.493 280.637 261.679C280.73 261.864 281.234 262.162 281.387 262.354C281.54 262.547 281.003 263.674 281.003 263.674C281.003 263.674 280.658 264.106 280.201 264.47C279.744 264.835 279.399 265.266 279.201 265.479C279.002 265.692 278.935 265.744 278.85 265.97C278.764 266.195 278.988 265.811 278.764 266.195C278.539 266.58 278.367 267.628 278.281 268.39C278.195 269.153 278.063 269.783 278.097 270.559C278.13 271.334 278.802 273.774 278.802 273.774C278.802 273.774 279.307 275.604 279.281 275.836C279.255 276.068 279.255 276.068 279.228 276.837C279.202 277.606 279.19 278.727 279.397 279.516C279.603 280.305 279.902 281.346 279.975 281.71C280.049 282.074 280.408 282.585 280.401 283.175C280.395 283.765 280.474 283.599 280.382 284.415C280.29 285.231 279.597 289.826 279.597 289.826L278.789 292.28L278.605 294.979C278.605 294.979 278.651 295.105 278.267 295.888C277.884 296.671 277.413 297.154 277.387 297.386C277.36 297.619 277.354 298.209 277.249 299.144C277.143 300.079 277.17 300.377 277.196 300.676C277.223 300.974 276.819 300.868 277.363 301.286C277.907 301.703 278.033 301.657 278.424 301.821C278.816 301.986 279.001 301.947 279.208 302.205C279.414 302.464 278.889 302.405 279.546 302.895C280.203 303.385 281.079 304.014 281.079 304.014L281.021 306.076L281.328 309.126C281.328 309.126 281.621 309.69 281.588 309.982C281.555 310.273 281.688 310.644 281.489 311.388C281.291 312.131 280.927 313.218 280.861 313.801L280.532 316.719C280.48 317.184 279.858 320.075 279.858 320.075C279.858 320.075 279.606 320.758 279.62 321.115C279.634 321.472 279.78 321.784 279.429 322.806C279.079 323.828 278.562 325.253 278.45 325.711C278.338 326.169 278.171 326.096 277.994 327.137C277.816 328.178 277.651 329.106 277.591 329.636C277.531 330.166 277.605 330.585 277.552 331.049C277.5 331.514 277.072 335.843 277.072 335.843C277.072 335.843 276.813 336.586 276.967 337.309C277.12 338.032 277.584 338.681 277.75 339.291C277.917 339.901 277.824 340.186 278.315 340.597C278.805 341.008 279.198 341.167 279.915 341.604C280.631 342.04 281.514 342.61 281.938 343.074C282.363 343.538 282.482 343.491 282.741 343.816L283.418 344.664C283.418 344.664 284.101 345.453 284.765 345.823C285.429 346.194 285.536 348.455 285.536 348.455C285.536 348.455 285.291 350.086 285.305 350.498C285.319 350.909 285.016 353.601 284.93 353.826C284.844 354.052 284.473 354.722 284.307 355.173C284.142 355.625 283.943 356.314 283.864 357.017L283.673 358.708C283.621 359.172 283.389 359.146 283.694 359.597C283.999 360.047 284.511 361.818 284.511 361.818L285.48 363.169C285.48 363.169 286.27 363.494 286.443 364.104C286.615 364.715 286.768 364.913 286.961 365.284C287.154 365.656 287.771 365.967 287.777 366.444C287.784 366.921 287.705 367.618 287.619 367.843C287.534 368.069 287.461 368.181 287.367 368.526C287.274 368.871 286.194 369.461 286.194 369.461C286.194 369.461 285.637 369.694 285.65 370.111C285.664 370.529 285.83 370.602 285.665 371.53C285.5 372.459 285.679 372.479 285.394 372.863C285.11 373.247 285.037 373.413 284.665 373.552C284.293 373.691 283.929 373.765 283.518 373.779C283.106 373.792 282.867 373.235 282.755 373.693C282.643 374.15 282.133 375.04 282.133 375.04C282.133 375.04 280.947 376.088 280.754 376.247C280.561 376.406 280.15 376.89 279.886 377.096C279.621 377.301 279.607 377.48 279.23 377.673C278.852 377.866 278.381 377.873 278.016 377.952C277.651 378.032 277.022 378.371 277.022 378.371C277.022 378.371 276.312 378.882 276.16 379.16C276.008 379.438 275.982 379.671 275.902 379.903C275.821 380.135 276.074 379.922 275.816 380.128C275.557 380.334 274.993 380.096 274.297 379.957C273.601 379.818 273.369 379.792 272.685 379.54C272.002 379.288 271.597 379.242 271.597 379.242L269.867 380.941C269.867 380.941 268.873 381.359 268.613 381.571C268.354 381.783 267.665 382.115 267.36 382.202C267.055 382.288 266.876 382.322 266.511 382.401C266.146 382.481 266.079 382.057 265.749 382.315C265.418 382.574 264.111 383.198 263.833 383.577C263.555 383.955 263.302 384.108 263.031 384.373C262.76 384.638 262.647 384.625 262.362 385.069C262.076 385.513 262.123 385.633 261.865 385.785C261.606 385.937 260.321 388.451 260.321 388.451C260.321 388.451 259.83 388.631 259.161 389.267C258.492 389.903 258.035 390.322 257.663 390.461C257.292 390.6 256.61 390.873 256.304 390.959C255.999 391.045 256.132 390.939 255.27 391.198C254.408 391.457 253.612 391.723 253.228 391.975C252.843 392.227 252.426 392.24 251.849 392.645C251.273 393.051 251.206 393.104 250.941 393.369C250.676 393.635 249.775 394.775 249.775 394.775C249.775 394.775 249.968 395.153 249.636 395.471C249.305 395.79 249.437 395.684 248.284 395.91C247.13 396.135 245.751 396.336 245.432 396.535C245.114 396.734 244.87 397.834 244.87 397.834C244.87 397.834 244.001 398.207 244.101 398.869C244.202 399.532 244.268 400.01 244.268 400.01C244.268 400.01 244.129 399.699 243.48 400.156C242.831 400.613 242.127 400.594 241.809 400.794C241.491 400.993 241.067 401.066 240.437 401.411C239.807 401.756 239.051 401.61 238.593 402.566C238.136 403.521 237.043 404.224 237.043 404.224C237.043 404.224 236.075 405.478 235.837 405.982C235.599 406.486 235.24 406.566 234.963 407.421C234.686 408.276 234.566 408.323 234.573 408.794C234.58 409.265 234.74 409.934 234.779 410.12C234.819 410.305 235.211 410.464 235.383 411.074C235.556 411.685 236.054 411.976 236.074 412.274C236.095 412.572 236.108 413.05 236.036 413.687C235.964 414.324 235.726 415.365 235.758 415.609C235.791 415.854 236.051 416.71 235.979 417.347C235.907 417.984 236.065 418.129 236.02 418.534C235.974 418.938 235.708 418.673 235.901 419.588C236.093 420.502 236.441 423.731 236.441 423.731C236.441 423.731 236.435 424.852 236.296 425.548C236.157 426.244 235.747 427.796 235.688 428.32C235.629 428.844 235.788 428.982 235.351 429.759C234.913 430.536 234.376 430.536 234.35 431.305C234.323 432.074 234.576 432.452 234.63 432.995C234.683 433.537 234.776 433.783 234.776 433.783L236.052 437.654C236.052 437.654 237.022 439.005 237.122 439.192C237.221 439.378 237.473 439.231 238.018 440.179C238.562 441.127 238.316 441.22 238.901 441.817C239.485 442.413 240.997 443.175 240.997 443.175C240.997 443.175 242.092 443.419 242.444 443.989C242.796 444.56 242.639 446.966 242.639 446.966C242.639 446.966 242.474 447.894 241.917 448.658C241.36 449.421 240.705 449.938 240.174 450.469C239.644 451 239.034 451.113 238.504 451.644C237.973 452.175 238.133 452.313 237.284 452.513C236.435 452.713 235.911 453.13 235.911 453.13L234.023 455.166C234.023 455.166 233.075 456.242 232.982 456.527C232.89 456.812 233.327 456.626 232.758 457.448C232.188 458.27 231.903 458.715 231.439 459.193C230.975 459.671 230.637 459.989 230.637 459.989C230.637 459.989 229.419 461.86 229.385 462.157C229.352 462.455 229.227 463.557 229.003 464.478C228.778 465.4 228.209 466.813 228.209 466.813C228.209 466.813 227.301 468.013 227.142 468.405C226.983 468.797 227.07 469.048 226.347 469.678C225.625 470.308 225.274 470.799 225.008 471.065C224.743 471.331 224.578 471.728 224.127 471.557C223.675 471.385 223.284 471.166 222.72 470.927C222.155 470.689 221.492 470.258 221.273 470.113C221.054 469.968 221.147 469.683 220.165 469.457C219.183 469.232 218.135 469.108 218.135 469.108C218.135 469.108 217.28 469.367 216.537 469.639C215.795 469.911 215.914 469.924 215.244 470.084C214.575 470.244 213.436 470.393 213.146 470.342C212.856 470.291 211.77 469.976 210.984 470.098C210.198 470.22 209.063 470.334 208.46 470.44C207.857 470.547 207.306 470.726 206.835 470.673C206.365 470.62 205.661 470.601 205.316 470.502C204.972 470.403 203.221 470.736 202.983 470.709C202.744 470.682 201.477 470.419 200.409 470.419C199.342 470.419 197.65 470.228 196.961 470.03C196.271 469.831 194.294 469.554 194.294 469.554L190.713 470.332L189.208 470.578C189.208 470.578 187.55 471.103 187.364 471.197C187.179 471.29 186.018 472.112 186.018 472.112L185.004 473.24C185.004 473.24 184.806 473.929 184.475 474.248C184.143 474.566 184.004 474.725 183.653 474.686C183.302 474.646 182.526 474.733 182.253 474.528C181.981 474.322 181.994 473.672 181.549 473.441C181.105 473.21 180.183 472.991 179.824 473.011C179.466 473.031 179.891 472.959 178.684 473.178C177.477 473.398 177.185 473.365 176.794 473.677C176.403 473.988 176.555 474.241 175.999 474.413C175.442 474.585 174.838 474.753 174.64 474.911C174.441 475.07 172.99 477.445 172.99 477.445C172.99 477.445 171.812 480.562 171.733 480.734C171.653 480.906 171.262 481.749 170.812 482.584C170.362 483.42 169.659 484.408 169.686 484.707C169.713 485.005 170.151 485.29 169.7 485.655C169.248 486.02 169.076 485.94 168.811 486.206C168.546 486.471 168.752 486.73 168.321 486.862C167.89 486.994 167.803 486.743 167.24 486.975C166.677 487.207 166.265 487.221 166.18 487.447C166.094 487.672 166.113 487.5 166.114 488.03C166.114 488.561 166.095 489.27 166.095 489.27C166.095 489.27 165.704 489.582 165.399 489.662C165.094 489.743 164.457 489.616 164.312 489.835C164.166 490.054 164 489.975 163.914 490.737C163.828 491.499 163.598 492.474 163.598 492.474C163.598 492.474 162.809 492.621 162.371 492.867C161.933 493.113 161.887 492.987 160.993 493.537C160.098 494.088 159.852 494.181 159.773 494.407C159.693 494.633 159.163 495.641 159.163 495.641C159.163 495.641 159.322 495.779 159.687 496.23C160.053 496.682 160.377 496.96 160.391 497.317C160.405 497.674 160.497 497.45 160.424 498.093C160.352 498.736 160.254 500.142 160.254 500.142L160.136 502.257C160.136 502.257 159.764 502.927 159.857 503.173C159.95 503.418 160.27 504.757 160.237 505.049C160.204 505.341 160.37 505.42 160.039 506.269C159.708 507.118 159.795 507.363 159.629 507.82C159.462 508.278 159.085 508.471 158.754 509.26C158.424 510.049 158.159 510.851 158.093 511.434C158.027 512.018 157.928 512.893 157.816 513.357C157.703 513.821 157.539 516.341 157.539 516.341C157.539 516.341 157.116 517.475 156.977 517.64C156.837 517.806 156.103 518.489 155.837 518.754C155.572 519.02 154.948 519.365 154.498 519.67C154.047 519.975 152.86 520.016 152.588 520.341C152.316 520.667 151.991 520.925 151.468 521.337C150.945 521.748 150.885 521.271 150.673 522.073C150.462 522.876 150.349 523.4 150.065 523.778C149.781 524.156 149.701 524.388 149.521 524.428C149.342 524.468 147.658 525.756 147.658 525.756L146.723 525.65C146.199 525.591 145.874 525.85 145.496 525.512C145.118 525.173 144.64 525.24 144.732 523.888C144.824 522.535 144.936 522.077 144.89 521.421C144.843 520.764 144.73 520.221 144.543 519.253C144.357 518.285 144.449 518 143.939 517.768C143.428 517.535 142.598 517.086 142.419 517.066C142.241 517.045 141.026 516.848 140.489 516.848C139.953 516.848 138.619 516.637 138.433 516.736C138.247 516.836 137.83 516.843 137.412 516.856C136.994 516.87 136.815 516.91 136.351 516.797C135.887 516.684 135.071 516.592 134.825 516.155C134.579 515.717 134.327 515.327 133.995 515.114C133.663 514.902 133.71 515.022 133.185 514.432C132.661 513.842 132.257 513.736 132.303 513.325L132.626 510.461L132.154 509.401L131.57 508.804L130.443 508.852C130.443 508.852 130.092 509.343 129.899 509.502C129.706 509.661 129.342 509.735 129.163 509.715C128.985 509.694 128.314 509.384 128.314 509.384L128.531 507.454L127.563 506.573L126.78 505.122L126.355 504.718C126.355 504.718 125.804 504.891 125.665 505.056C125.526 505.222 125.314 505.547 125.002 505.693C124.69 505.839 124.372 506.038 124.193 506.018C124.015 505.998 123.869 506.277 123.153 505.78C122.436 505.283 122.171 505.549 122.005 504.939C121.838 504.329 121.891 503.859 121.507 503.58C121.122 503.302 120.963 503.163 120.683 503.017C120.404 502.871 120.73 502.606 120.06 502.772C119.389 502.937 119.006 503.183 119.006 503.183C119.006 503.183 118.648 503.203 118.303 503.104C117.958 503.005 117.871 502.76 117.533 502.601C117.195 502.443 116.187 502.449 116.187 502.449C116.187 502.449 115.816 502.582 115.73 502.814C115.643 503.045 115.683 503.225 115.319 503.298C114.955 503.372 114.662 503.345 114.311 503.305C113.96 503.266 113.117 502.875 113.117 502.875L112.779 502.716C112.779 502.716 112.015 502.16 111.578 501.809C111.141 501.458 110.536 500.57 110.536 500.57L110.13 499.993C110.13 499.993 109.825 499.543 110.21 499.291C110.594 499.038 111.217 498.753 111.217 498.753L111.715 499.044L112.497 498.958L112.178 497.619L111.686 496.737L110.81 495.571L108.428 494.12C108.428 494.12 107.871 493.286 107.704 492.676C107.538 492.066 106.861 490.687 106.834 490.449C106.806 490.211 106.229 488.964 106.229 488.964L105.32 487.558L105.406 486.796L105.099 485.344C105.099 485.344 104.853 485.437 104.138 485.471C103.422 485.505 103.13 485.478 102.957 485.459C102.784 485.439 101.909 485.28 101.663 484.842C101.417 484.404 101.264 483.676 101.178 483.37C101.091 483.065 100.381 482.038 100.341 481.859C100.301 481.679 99.8363 481.09 99.8363 481.09C99.8363 481.09 99.1993 480.427 99.04 480.289C98.8807 480.15 98.2965 479.554 98.1373 479.361C97.9781 479.168 97.7119 478.426 97.7119 478.426L98.1928 474.163L99.1938 473.685L100.844 472.689C100.844 472.689 101.574 471.999 101.951 471.807L101.93 470.442L100.193 470.125L95.2317 469.505L94.6208 468.61C94.6208 468.61 93.5129 468.485 93.4133 468.299C93.3136 468.113 93.1539 467.443 92.9216 467.417C92.6893 467.391 92.2917 467.225 91.9336 467.245C91.5754 467.265 90.7728 467.054 90.4147 467.074C90.0565 467.094 89.4728 467.028 89.4728 467.028C89.4728 467.028 89.56 468.34 89.3015 468.546C89.043 468.752 89.6335 468.759 89.2357 469.13C88.8379 469.501 88.5131 469.76 88.1883 470.019C87.8636 470.278 86.9615 470.948 86.9615 470.948L86.0931 471.32L84.6076 471.388C84.6076 471.388 84.5079 471.202 84.3681 470.891C84.2283 470.579 83.8764 470.009 83.8764 470.009C83.8764 470.009 83.5445 469.797 83.3717 469.777C83.199 469.758 82.9138 469.665 82.6821 470.115C82.4503 470.566 82.9216 470.613 82.5766 471.05L82.2323 471.482C82.2323 471.482 81.848 471.734 81.6224 471.648C81.3968 471.562 80.8996 471.211 80.6602 470.713C80.4207 470.216 79.9167 469.978 79.89 469.68C79.8634 469.381 80.0351 468.394 80.0351 468.394L80.1033 467.575C80.1033 467.575 79.6093 466.928 79.2578 466.889C78.9064 466.849 78.5021 466.743 78.2765 466.657C78.051 466.572 77.6332 466.585 77.6527 466.412L77.7777 465.305L78.5 465.211L78.9831 464.084L78.5116 463.023L77.8083 462.413C77.8083 462.413 78.1921 461.631 78.2786 461.399C78.365 461.168 78.5763 460.311 78.5763 460.311L80.7238 458.599L81.2069 457.472L80.8423 457.015L80.1918 456.471L79.6414 456.644C79.6414 456.644 79.0248 456.87 78.8199 457.082L78.0116 457.938C78.0116 457.938 77.8059 458.21 77.441 458.289C77.0762 458.369 77.3351 458.694 76.6591 458.376C75.9831 458.059 75.1994 457.681 75.1727 457.382C75.1461 457.084 75.3509 456.872 75.2647 456.566C75.1785 456.261 75.9767 456.351 75.3187 455.982C74.6606 455.612 73.7449 455.334 73.5126 455.307L72.2856 455.169L72.4569 453.651L72.0449 452.597L70.538 450.769L69.9603 449.045C69.9603 449.045 70.3248 448.435 70.0524 448.229C69.78 448.024 69.183 447.54 69.2032 447.362C69.2233 447.183 69.3015 445.955 69.3812 445.784C69.4609 445.612 70.595 445.504 70.595 445.504L71.0654 444.49C71.0654 444.49 71.3901 444.231 71.5562 444.31C71.7222 444.389 72.2987 444.038 72.2987 444.038L72.5033 442.759C72.5033 442.759 72.6025 442.414 72.5759 442.116C72.5492 441.817 72.522 441.042 72.522 441.042C72.522 441.042 72.8802 441.022 73.3039 440.955C73.7277 440.889 74.2653 440.829 74.2653 440.829L74.3842 439.775L74.6429 439.032L74.0392 438.608L73.3097 438.23C73.3097 438.23 72.9182 438.011 72.3222 438.589C71.7261 439.167 71.461 439.379 71.3277 439.545C71.1944 439.71 70.8179 440.373 70.6318 440.473C70.4456 440.573 70.2339 440.899 69.9385 440.63C69.643 440.362 69.2387 440.256 69.2582 440.083C69.2777 439.91 69.2316 439.784 69.3771 439.029C69.5227 438.273 69.4881 437.564 69.538 437.389C69.5879 437.213 69.6368 436.513 69.6368 436.513C69.6368 436.513 69.3413 436.245 69.03 436.385C68.7186 436.524 67.5838 436.638 67.4914 436.923C67.3989 437.208 67.6775 436.823 67.4188 437.566C67.1601 438.308 67.541 438.942 67.1893 439.494C66.8375 440.045 67.1548 439.906 66.7575 440.808C66.3602 441.71 65.9763 442.493 65.9561 442.671C65.936 442.85 65.9828 442.97 65.6179 443.049C65.253 443.129 64.8225 443.255 64.3774 443.03C63.9323 442.805 63.767 442.666 63.0837 442.414C62.4003 442.162 61.2861 442.627 61.5516 441.825C61.817 441.022 61.8286 440.439 62.3395 440.08C62.8505 439.722 63.0292 439.742 63.2944 439.476C63.5596 439.211 64.0237 438.787 63.7707 438.409C63.5178 438.03 63.8961 437.832 63.1203 437.865C62.3444 437.898 61.9556 438.029 61.9556 438.029C61.9556 438.029 61.5166 438.926 61.3372 438.966C61.1577 439.006 60.4025 439.391 59.9847 439.405C59.567 439.418 59.9256 439.929 59.0691 439.126C58.2125 438.324 57.7414 437.795 57.7414 437.795C57.7414 437.795 57.88 437.635 57.8005 437.271C57.721 436.906 56.9437 435.401 56.9437 435.401L56.0825 436.19C56.0825 436.19 56.2819 436.508 55.9576 437.298C55.6333 438.088 56.0647 438.968 55.7272 439.34C55.3896 439.712 55.9143 440.248 55.5158 440.679C55.1173 441.111 54.1564 441.768 54.1564 441.768L53.2885 442.617C53.2885 442.617 53.4009 442.69 53.1964 443.433C52.992 444.176 53.2444 445.628 52.9264 445.827C52.6083 446.026 52.0914 446.384 52.0914 446.384C52.0914 446.384 51.6609 446.51 51.2888 446.173C50.9167 445.835 50.4596 445.663 50.3928 445.185C50.3261 444.707 50.5117 444.131 50.597 443.375C50.6824 442.619 49.958 442.356 50.6885 442.083C51.4191 441.809 51.5577 441.65 51.7431 441.611C51.9285 441.571 52.4655 441.517 52.5118 441.106C52.5582 440.696 52.0141 440.278 51.7945 440.139C51.575 440 51.2243 439.954 51.4025 439.444C51.5807 438.933 51.6004 438.224 51.7994 438.011C51.9983 437.798 52.3627 437.188 52.3627 437.188L53.6147 435.02C53.6147 435.02 54.0993 435.43 53.92 434.933C53.7408 434.437 53.4747 433.641 53.5009 433.409C53.5271 433.176 54.302 432.082 54.302 432.082L55.5471 430.51L54.2 429.351L53.9593 426.779C53.9593 426.779 53.2492 426.228 53.3023 425.758C53.3554 425.287 53.248 424.153 53.6124 423.543C53.9769 422.933 54.2154 422.369 54.4338 422.038C54.6521 421.707 54.7571 420.241 54.7571 420.241L54.1864 419.525C54.1864 419.525 54.3306 417.178 54.4499 416.654C54.5693 416.131 54.7403 415.149 54.7002 414.97C54.6602 414.791 53.0541 413.307 53.0541 413.307L51.0903 412.374L49.5582 411.785L48.5769 411.553C48.5769 411.553 47.9201 411.6 47.5358 411.852C47.1515 412.104 46.3364 413.019 46.2038 413.179C46.0711 413.339 45.5936 413.882 45.382 414.154C45.1704 414.426 44.9385 414.93 44.4946 415.176C44.0507 415.421 43.3543 415.819 42.711 415.801C42.0676 415.782 40.5555 415.497 40.5555 415.497C40.5555 415.497 40.4102 415.716 39.9256 415.305C39.4411 414.895 38.5785 414.146 38.3724 413.888C38.1663 413.629 37.5693 413.146 37.1778 412.927C36.7863 412.708 36.401 411.953 36.401 411.953C36.401 411.953 36.8709 410.408 36.8903 410.235C36.9098 410.062 37.4861 408.644 37.4861 408.644C37.4861 408.644 37.4789 408.173 37.3129 408.094C37.1469 408.015 36.3645 407.571 36.3645 407.571C36.3645 407.571 36.377 406.39 36.5291 406.112C36.6811 405.833 36.5595 404.933 36.6662 404.415C36.773 403.896 36.6928 403.591 37.0115 403.386C37.3302 403.181 37.8799 403.014 37.8799 403.014L38.2768 401.581L39.2977 401.461L39.3814 398.099L40.7472 397.542L42.2659 396.646L42.8297 396.354C42.8297 396.354 43.3539 396.413 43.6512 395.916C43.9486 395.418 44.2146 395.093 44.3205 394.689C44.4264 394.284 44.3469 393.92 44.4327 393.694C44.5184 393.469 44.678 393.07 44.6573 392.773C44.6366 392.475 44.696 391.36 44.696 391.36C44.696 391.36 43.9787 390.392 43.9454 390.154C43.912 389.915 43.7594 389.716 44.0842 389.458C44.409 389.199 44.8524 388.423 45.0386 388.323C45.2248 388.223 46.5097 387.367 46.5097 387.367L47.3375 386.339L47.9938 385.762C47.9938 385.762 48.9554 385.098 49.1536 384.946C49.3517 384.793 49.7301 384.54 49.9885 384.389C50.2469 384.237 50.5985 384.222 50.5324 383.738C50.4663 383.255 49.9278 382.253 49.9278 382.253C49.9278 382.253 49.987 381.729 49.8344 381.531C49.6818 381.333 48.6398 380.57 48.6398 380.57C48.6398 380.57 48.5262 380.026 48.4935 379.782C48.4608 379.537 48.4853 378.303 48.4853 378.303C48.4853 378.303 48.5644 378.137 48.8697 378.051C49.175 377.965 49.592 377.958 49.592 377.958L51.2843 379.747C51.2843 379.747 51.2646 380.456 51.4246 380.589C51.5846 380.721 52.4929 381.065 52.4929 381.065L53.627 380.958L53.6796 379.957L56.0474 379.928L57.8515 380.192C57.8515 380.192 58.4813 380.384 58.6608 380.344C58.8402 380.304 60.3719 380.362 60.5835 380.09C60.7951 379.819 61.1937 379.387 61.339 379.168C61.4843 378.949 62.2331 378.087 62.2331 378.087L63.8637 376.733L66.0901 373.788C66.0901 373.788 66.9709 372.29 67.1036 372.13C67.2362 371.97 68.0383 371.705 68.3035 371.439C68.5687 371.173 69.0126 370.928 69.4037 370.616C69.7948 370.305 69.7948 370.305 70.1061 370.165C70.4175 370.025 70.9149 369.84 70.9149 369.84L71.9759 369.899L71.8688 368.229C71.8688 368.229 71.5836 368.136 71.4438 367.825C71.304 367.514 71.3631 366.99 71.4094 366.579C71.4558 366.168 71.5678 365.71 71.5678 365.71C71.5678 365.71 72.1777 365.544 72.3631 365.505C72.5485 365.465 72.7609 365.133 72.9992 365.106C73.2376 365.079 74.0937 365.35 74.0937 365.35L73.8691 366.271L74.1345 367.073L74.3939 367.929L74.6663 368.134L75.6149 368.121L76.2054 368.127C76.2054 368.127 76.8684 367.49 77.007 367.331C77.1456 367.172 78.1401 366.217 78.1401 366.217C78.1401 366.217 78.7563 365.46 78.9023 365.235C79.0483 365.01 79.426 364.764 79.426 364.764L80.6129 364.723L81.1818 363.37C81.1818 363.37 81.4271 362.746 81.6125 362.707C81.7979 362.667 82.3617 362.375 82.3617 362.375L82.9855 362.62C82.9855 362.62 83.3564 362.487 83.4965 362.262C83.6365 362.036 84.0798 361.797 84.0798 361.797C84.0798 361.797 84.5511 361.79 85.1944 361.862L85.8377 361.935L87.1505 361.848L87.3605 358.917L87.4857 357.272L88.1484 357.172L88.858 357.192L89.044 357.629L89.7464 357.178L90.1569 356.693C90.2955 356.534 91.1445 356.334 91.1445 356.334L91.6424 356.626L91.568 355.2L90.593 354.379L90.4794 353.835C90.4393 353.656 90.3064 352.748 90.3064 352.748L91.4265 352.283C91.4265 352.283 92.1889 352.369 92.355 352.449C92.521 352.528 94.3123 352.905 94.3123 352.905L93.8371 356.047L94.5008 357.008L94.6209 358.029L94.4097 358.831L94.1183 359.329L93.858 360.247L93.2926 361.087L92.5926 361.678L92.1309 362.295C92.1309 362.295 91.5366 363.018 91.4464 363.123C91.3562 363.227 90.9712 363.859 90.9712 363.859C90.9712 363.859 90.943 363.735 90.8677 364.402C90.7925 365.069 90.6936 365.251 90.7071 365.451C90.7207 365.652 91.262 366.147 91.262 366.147C91.262 366.147 91.7879 366.405 91.8021 366.6C91.8163 366.795 91.8932 367.557 91.8253 367.785C91.7574 368.012 91.7924 368.45 91.7245 368.678C91.6566 368.905 91.5483 369.17 91.8776 369.407C92.2068 369.643 92.2628 369.842 92.5591 369.996C92.8554 370.15 94.2397 370.819 94.2397 370.819C94.2397 370.819 94.3859 370.914 94.8456 370.688C95.3054 370.463 95.502 370.485 95.8137 370.128C96.1254 369.771 96.472 369.533 96.3433 369.283C96.2146 369.034 95.9203 368.488 95.9008 368.287C95.8812 368.085 95.7209 367.796 95.7518 367.522C95.7827 367.248 95.8459 367.062 95.6936 366.647C95.5414 366.232 95.3926 366.535 95.4894 365.677C95.5861 364.82 95.6452 363.922 95.6714 363.69C95.6976 363.457 95.6046 363.212 95.801 362.914C95.9975 362.617 96.4739 361.495 96.4739 361.495C96.4739 361.495 96.8709 360.436 97.1253 360.265C97.3798 360.095 97.6625 360.049 97.6336 359.931C97.6047 359.813 97.4592 359.712 97.562 359.175C97.6649 358.638 97.8041 358.099 97.8041 358.099C97.8041 358.099 98.9976 357.679 99.1148 357.656C99.232 357.633 99.7422 357.334 99.7422 357.334C99.7422 357.334 99.932 357.042 100.553 357.148C101.175 357.255 101.781 357.444 101.781 357.444C101.781 357.444 102.137 357.442 102.384 357.711C102.631 357.98 102.496 359.183 102.478 359.338C102.461 359.492 102.585 359.784 102.583 360.176C102.581 360.567 102.556 360.408 102.477 361.11C102.398 361.813 102.374 362.401 102.374 362.401L103.11 363.196C103.11 363.196 103.852 363.949 103.88 364.073C103.908 364.197 103.999 364.086 103.929 364.712L103.749 366.307L104.134 366.743L105.136 366.578L105.692 365.815C105.692 365.815 106.106 365.307 106.123 365.152C106.141 364.997 106.104 364.951 106.139 364.641C106.173 364.332 105.709 363.212 105.709 363.212C105.709 363.212 105.511 362.876 105.525 362.757C105.538 362.638 105.725 361.676 105.816 361.565C105.907 361.455 105.92 361.342 106.169 361.213C106.419 361.085 107.759 360.759 107.759 360.759C107.759 360.759 108.046 360.671 108.356 360.706C108.666 360.741 109.401 360.903 109.587 360.966C109.773 361.029 110.638 361.44 110.861 361.544C111.085 361.647 111.923 362.297 112.06 362.469C112.197 362.641 112.604 362.886 112.952 363.281C113.299 363.676 113.492 363.734 113.867 364.253C114.243 364.772 114.535 364.642 114.66 365.247C114.785 365.852 114.72 366.478 114.743 366.595C114.766 366.712 115.509 367.507 115.633 367.799C115.757 368.09 115.987 368.508 115.97 368.663C115.952 368.818 115.798 369.114 116.041 369.105C116.283 369.096 116.569 368.966 116.673 368.742C116.776 368.519 117.317 367.947 117.371 367.796C117.424 367.645 117.438 367.568 117.605 367.111C117.771 366.653 117.69 366.728 117.934 366.279C118.177 365.831 118.119 365.709 118.413 365.507C118.707 365.305 119.127 365.117 119.246 365.131C119.365 365.144 120.108 365.506 120.108 365.506C120.108 365.506 120.765 365.622 120.897 365.516C121.03 365.411 121.337 365.095 121.337 365.095L121.511 364.247L122.367 363.987L122.901 364.168C122.901 364.168 123.14 364.828 123.238 365.032C123.336 365.236 123.395 365.406 123.596 365.706C123.798 366.006 124.256 366.492 124.419 366.432L124.583 366.372C124.583 366.372 125.232 365.854 125.296 365.663C125.36 365.471 125.462 364.891 125.448 364.697C125.433 364.502 125.339 363.895 125.429 363.79C125.519 363.686 125.45 362.213 125.45 362.213C125.45 362.213 125.972 361.759 126.228 361.631C126.483 361.503 127.388 361.129 127.525 360.987C127.661 360.846 127.806 360.585 127.828 360.388C127.85 360.192 127.531 359.173 127.531 359.173C127.531 359.173 127.203 359.293 127.225 359.096C127.248 358.9 127.017 358.168 127.017 358.168L127.52 357.555C127.52 357.555 128.024 357.256 128.152 357.192C128.28 357.128 128.948 356.77 129.27 356.372C129.592 355.974 129.654 355.746 129.873 355.571C130.092 355.397 130.264 355.26 130.573 354.981C130.882 354.702 131.797 354.293 131.797 354.293C131.797 354.293 132.741 353.254 132.913 353.116C133.085 352.979 133.695 352.493 133.799 352.269C133.902 352.046 133.811 351.089 133.811 351.089L132.915 349.57L132.699 348.008L132.014 346.749L131.169 346.22L130.021 345.222C130.021 345.222 128.955 344.511 128.969 344.391C128.982 344.272 128.964 343.366 128.964 343.366L128.787 342.477L129.226 341.737L130.063 341.319L131.37 340.911L132.464 340.679L133.475 340.437C133.475 340.437 134.084 340.271 134.179 340.125C134.274 339.979 135.203 339.45 135.203 339.45C135.203 339.45 134.961 338.44 134.938 338.317C134.916 338.194 134.613 338.045 134.591 337.922C134.568 337.799 133.931 337.136 133.944 337.023C133.957 336.909 134.191 336.224 134.191 336.224L134.588 335.166L135.456 334.793L136.321 334.456L135.958 333.824L135.175 333.067L135.26 332.684L135.799 332.076L136.281 331.973C136.281 331.973 136.637 331.971 136.801 331.911C136.965 331.852 137.475 331.553 137.488 331.434C137.502 331.315 137.523 331.125 137.592 330.891C137.66 330.658 137.699 330.312 137.954 330.142C138.208 329.972 138.8 329.646 138.8 329.646L139.299 329.389C139.299 329.389 139.509 329.292 139.737 329.36C139.965 329.428 140.604 329.693 140.604 329.693L140.903 330.197C141.005 330.366 141.225 330.824 141.408 330.966C141.591 331.107 141.921 331.337 141.921 331.337C141.921 331.337 142.14 331.483 142.367 331.231C142.595 330.979 142.894 330.735 142.99 330.632C143.086 330.528 143.334 330.357 143.334 330.357C143.334 330.357 143.781 330.25 144.21 330.299C144.638 330.347 145.93 330.451 145.93 330.451C145.93 330.451 146.359 330.499 146.518 330.475C146.678 330.451 147.075 329.392 147.075 329.392C147.075 329.392 146.681 328.714 146.711 328.446C146.741 328.178 146.805 327.986 146.748 327.739C146.692 327.491 146.107 327.112 146.107 327.112C146.107 327.112 145.384 326.518 145.247 326.345C145.109 326.173 144.921 326.073 145.149 325.822C145.376 325.57 144.993 324.423 145.152 324.405C145.311 324.387 146.684 324.457 146.684 324.457L147.36 323.707L146.884 322.315C146.884 322.315 147.082 321.625 146.903 321.448C146.724 321.271 146.135 320.928 146.135 320.928C146.135 320.928 146.575 320.187 146.678 319.964C146.782 319.74 146.576 319.482 146.985 319.329C147.395 319.176 147.723 319.099 147.723 319.099L148.949 318.013L150.028 317.543L150.642 317.022L151.457 316.8C151.457 316.8 151.804 316.881 151.946 317.012C152.088 317.143 152.583 317.675 152.583 317.675C152.583 317.675 152.93 317.756 152.804 318.17C152.679 318.584 152.498 319.119 152.313 319.375C152.127 319.632 151.542 320.271 151.542 320.271L151.392 320.532C151.392 320.532 150.994 321.277 151.251 321.776C151.509 322.276 151.769 322.426 151.884 322.481C151.998 322.536 152.728 322.697 152.859 322.549C152.991 322.401 153.642 321.925 153.642 321.925C153.642 321.925 154.442 321.461 154.57 321.397C154.698 321.333 155.129 320.989 155.314 320.733C155.5 320.476 155.548 320.048 155.608 319.898C155.667 319.748 155.998 318.524 155.911 318.274C155.825 318.023 154.98 317.813 155.047 317.543C155.113 317.273 155.368 316.084 155.368 316.084L156.015 314.896L156.507 310.537L156.601 306.918L156.725 304.055L156.339 302.239L155.501 301.276L154.318 300.907L153.402 301.003L152.326 301.08L151.43 300.623L150.456 299.096L149.801 298.275L150.019 296.719C150.019 296.719 150.987 296.159 151.119 296.053C151.252 295.948 151.541 295.468 151.8 295.262C152.058 295.056 152.69 294.693 152.883 294.751C153.075 294.809 153.966 295.307 153.966 295.307C153.966 295.307 154.55 295.373 154.647 295.583C154.744 295.793 155.068 296.022 155.032 296.338C154.996 296.654 155.039 296.972 155.181 297.103C155.323 297.233 156.085 297.482 156.085 297.482C156.085 297.482 156.373 297.394 156.499 297.293C156.625 297.193 157.265 296.119 157.265 296.119L157.143 293.344C157.143 293.344 157.048 292.428 157.043 292.151C157.038 291.873 157.012 291.357 157.084 291.088C157.157 290.819 157.526 289.956 157.548 289.759C157.57 289.563 157.051 287.852 157.051 287.852C157.051 287.852 156.505 287.079 156.54 286.769C156.575 286.459 156.713 285.606 156.713 285.606L155.628 284.748C155.628 284.748 154.251 284.382 154.087 284.4C153.922 284.417 153.336 284.743 153.209 284.475L153.083 284.208L152.386 283.382L152.729 281.726C152.729 281.726 153.626 280.41 153.717 280.299C153.808 280.189 154.285 279.809 154.716 279.465C155.146 279.122 155.798 277.893 155.798 277.893L156.854 276.553C156.854 276.553 157.187 275.686 157.414 275.434C157.642 275.182 158.14 273.544 158.14 273.544C158.14 273.544 158.584 272.768 158.659 272.42C158.735 272.073 158.796 271.211 158.813 271.057C158.831 270.902 158.653 270.013 158.653 270.013L157.782 270.036C157.782 270.036 157.441 270.275 157.329 270.576C157.217 270.877 156.724 271.768 156.671 272.238C156.618 272.709 156.633 272.946 156.453 273.474C156.273 274.002 156.003 274.684 155.729 274.972C155.455 275.261 155.089 275.726 154.917 275.864C154.745 276.001 154.787 276.319 154.289 276.185C153.792 276.05 153.107 275.816 152.805 275.704C152.504 275.591 151.169 274.808 151.169 274.808C151.169 274.808 150.883 273.871 150.62 273.365C150.358 272.859 149.729 271.805 149.742 271.686C149.755 271.567 149.573 270.72 149.777 270.309C149.98 269.897 149.606 266.9 149.606 266.9C149.606 266.9 149.489 266.175 149.305 265.72C149.121 265.266 147.955 263.675 147.955 263.675C147.955 263.675 147.02 262.502 146.849 261.934C146.678 261.366 146.24 260.327 146.176 260.199C146.112 260.072 145.794 259.409 145.794 259.409L144.642 258.452L143.753 258.629L142.637 259.058C142.637 259.058 142.357 259.775 142.103 259.945C141.848 260.115 141.515 260.234 141.347 260.33C141.18 260.426 141.012 260.847 140.587 260.443C140.162 260.04 139.498 259.609 139.498 259.609C139.498 259.609 139.237 259.145 139.316 258.762C139.396 258.379 139.55 257.763 139.676 257.657C139.803 257.551 140.259 257.409 140.35 257.299C140.441 257.188 140.71 256.194 140.838 256.13C140.966 256.066 141.445 255.294 141.445 255.294C141.445 255.294 141.237 254.679 141.132 254.589C141.028 254.499 140.351 254.187 140.351 254.187C140.351 254.187 139.717 254.194 139.638 254.577C139.558 254.96 139.342 255.804 139.252 255.915C139.161 256.025 139.066 256.171 138.807 256.377C138.549 256.583 138.29 256.789 138.076 256.928C137.861 257.066 137.53 257.222 137.53 257.222C137.53 257.222 137.023 257.165 136.718 257.088C136.413 257.012 135.317 256.574 135.317 256.574L135.223 254.947L134.34 254.377C134.34 254.377 133.594 253.98 133.572 253.857C133.55 253.734 133.483 253.256 133.483 253.256L133.701 250.952L134.222 250.499C134.222 250.499 134.406 250.64 134.978 250.427C135.551 250.214 135.765 250.082 135.966 250.068C136.167 250.055 136.54 249.898 136.79 249.769C137.04 249.641 138.018 249.039 138.072 248.889C138.125 248.738 138.07 248.533 138.211 248.349L138.763 247.622L138.906 243.573L139.532 242.577C139.532 242.577 139.635 242.033 139.405 241.615C139.175 241.198 138.85 240.92 138.447 240.639C138.045 240.358 137.602 240.11 137.2 239.829C136.797 239.548 136.399 239.226 136.167 239.2C135.934 239.174 135.238 239.409 135.042 239.386C134.845 239.364 134.502 239.247 133.927 239.104C133.352 238.961 132.508 238.745 132.508 238.745C132.508 238.745 132.354 239.041 132.033 238.414C131.711 237.787 131.375 236.922 131.375 236.922L131.942 235.37L132.629 234.893C132.629 234.893 132.622 234.579 132.609 234.378C132.595 234.178 132.825 233.848 132.456 233.649C132.086 233.451 132.182 233.618 131.825 233.301C131.469 232.983 131.161 232.556 131.219 232.364C131.277 232.172 131.411 231.36 131.523 231.06C131.636 230.759 131.448 230.659 131.74 230.529C132.032 230.399 132.231 230.349 132.486 230.221C132.742 230.093 133.481 229.429 133.571 229.319C133.662 229.208 134.261 228.45 134.261 228.45C134.261 228.45 134.32 228.299 134.035 227.99C133.75 227.68 133.188 227.104 133.188 227.104C133.188 227.104 132.996 227.041 133.013 226.886C133.031 226.731 133.108 225.672 133.108 225.672L133.253 225.453L133.899 224.971L134.865 225.123L135.743 225.734L136.289 225.44L136.793 224.827L137.039 223.71C137.039 223.71 136.07 223.208 136.093 223.012C136.115 222.815 135.951 220.789 135.951 220.789L136.311 219.683C136.311 219.683 135.908 219.083 135.807 218.915C135.705 218.747 135.47 218.051 135.497 217.813C135.524 217.574 135.713 216.969 135.713 216.969L136.774 216.654L137.215 215.522L137.146 214.368L136.32 213.292L135.864 212.095L135.297 210.493L135.204 209.928L132.862 209.03C132.862 209.03 131.96 209.007 131.799 208.989C131.638 208.971 130.672 208.82 130.362 208.785C130.053 208.75 128.868 208.773 128.843 208.613C128.819 208.454 128.832 208.021 128.515 207.672C128.199 207.322 127.051 206.325 127.051 206.325C127.051 206.325 126.725 206.053 126.847 205.668C126.969 205.284 127.087 204.236 127.187 204.048C127.286 203.861 127.84 203.175 127.84 203.175L128.86 200.77L129.827 199.896C129.827 199.896 129.373 199.374 129.45 199.063C129.528 198.752 129.523 198.046 129.505 197.887C129.486 197.728 128.077 195.833 128.077 195.833L126.459 192.695C126.459 192.695 125.261 191.065 125.116 190.964C124.971 190.863 122.61 189.065 122.61 189.065L120.13 187.247L117.925 185.461L115.68 184.026C115.68 184.026 114.406 183.448 114.291 183.399C114.176 183.349 112.967 182.893 112.857 182.845C112.748 182.796 111.939 182.271 111.778 182.253C111.617 182.235 111.021 181.263 111.021 181.263L110.395 180.878L109.604 181.579L109.22 182.205C109.22 182.205 108.957 182.767 108.648 182.732L107.712 182.626L106.907 181.745C106.907 181.745 106.529 181.938 106.586 181.432C106.644 180.926 106.506 179.686 106.506 179.686C106.506 179.686 105.971 180.259 105.852 180.245C105.733 180.232 105.14 180.243 104.762 180.122C104.383 180.001 104.222 179.983 103.926 179.829C103.63 179.675 103.172 179.189 103.112 179.026C103.052 178.862 102.557 178.33 102.557 178.33L101.664 178.229L100.566 178.497L99.6972 178.87C99.6972 178.87 99.1134 178.804 98.8441 178.731C98.5748 178.659 97.4551 178.104 97.4551 178.104L97.366 177.503C97.366 177.503 97.3225 175.804 97.2672 175.598C97.212 175.393 97.063 174.629 97.063 174.629C97.063 174.629 96.5701 174.452 96.2739 174.618C95.9778 174.783 95.2663 175.529 95.2663 175.529C95.2663 175.529 95.7356 175.54 95.121 175.748C94.5063 175.956 94.1334 176.107 93.9011 176.081C93.6688 176.055 92.9706 175.934 92.7956 175.721C92.6205 175.508 92.3928 175.121 92.3685 174.961C92.3443 174.802 92.0047 174.016 92.0047 174.016L91.2236 173.614L90.457 174.474C90.457 174.474 90.1938 174.722 90.0989 174.868C90.004 175.014 89.421 175.262 89.421 175.262C89.421 175.262 88.6407 175.174 88.3397 175.062C88.0387 174.949 87.1985 174.698 87.1702 174.574C87.142 174.45 86.8072 173.942 86.696 173.537C86.5848 173.133 86.423 172.481 86.1335 172.214C85.844 171.946 85.2622 171.916 85.0164 171.261C84.7706 170.606 84.7355 170.596 84.7064 170.159C84.6774 169.722 84.4644 168.829 84.4644 168.829L83.3345 167.99L81.9394 167.79C81.9394 167.79 81.2965 167.875 81.0506 167.648C80.8048 167.421 80.7159 167.14 80.4088 166.707C80.1017 166.275 79.5986 165.868 79.5386 165.704C79.4787 165.541 79.3264 165.126 79.2018 164.84C79.0772 164.555 78.7593 163.844 78.7593 163.844L77.2491 163.595L75.3565 163.261C75.3565 163.261 75.0022 162.551 74.7544 162.288C74.5066 162.025 73.9733 161.887 73.953 161.372C73.9326 160.857 73.769 160.917 73.857 160.137C73.945 159.357 74.0391 158.897 73.9732 158.733C73.9073 158.568 73.5878 157.978 73.3711 157.76C73.1543 157.543 72.794 157.261 72.6209 157.084C72.4477 156.908 71.6412 156.305 71.6412 156.305C71.6412 156.305 69.6981 156.043 69.4658 156.017C69.2335 155.991 68.1569 155.749 68.1569 155.749L68.0193 154.509C68.0193 154.509 67.5014 153.86 67.3687 153.646C67.236 153.432 66.7095 153.179 66.7646 153.065C66.8197 152.95 67.0522 150.89 67.0522 150.89L66.8062 149.916C66.8062 149.916 66.2244 149.458 66.0743 149.399C65.9241 149.34 65.2213 149.26 64.8873 149.066C64.5533 148.871 64.1836 148.673 63.7635 148.547C63.3434 148.421 62.8613 148.524 62.7131 148.073C62.5649 147.622 62.5871 147.425 62.4712 147.063C62.3553 146.7 62.327 146.576 62.2165 146.165C62.1059 145.755 61.9792 145.114 61.9792 145.114C61.9792 145.114 62.378 143.343 62.4352 143.157C62.4925 142.97 62.6956 142.239 62.8941 141.87C63.0926 141.5 63.2514 141.162 63.1497 140.994C63.0481 140.826 62.8709 140.685 62.2959 140.542C61.7209 140.399 60.2512 140.112 60.1467 140.022C60.0423 139.932 59.7683 139.901 59.7615 139.587C59.7548 139.272 59.3277 138.513 59.3277 138.513L58.8939 137.438C58.8939 137.438 58.6334 137.288 58.4913 137.158C58.3492 137.027 57.9579 136.272 57.9579 136.272L58.0586 135.378C58.0721 135.259 58.1487 134.954 58.3527 134.857C58.5568 134.759 58.9869 134.85 59.0218 134.54C59.0568 134.231 59.1931 133.022 59.0692 132.73C58.9452 132.439 58.9897 132.366 58.8523 132.193C58.7149 132.021 58.8193 132.111 58.4758 131.68C58.1323 131.25 57.7478 130.808 57.7478 130.808C57.7478 130.808 57.3053 130.559 57.345 130.208C57.3846 129.857 57.3043 129.178 57.4901 128.922C57.6758 128.665 57.9161 128.301 57.8648 128.06C57.8136 127.819 57.9049 127.865 57.5824 127.515C57.26 127.165 56.6102 126.615 56.5038 126.489L55.8485 125.667C55.8485 125.667 55.2336 124.808 55.3062 124.539C55.3788 124.269 55.7544 123.721 55.7544 123.721L55.4822 122.978L55.9063 122.749C55.9063 122.749 56.1646 122.223 56.1047 122.06C56.0447 121.896 56.0252 121.695 55.8278 121.359C55.6304 121.023 55.3107 121.023 55.1416 120.811C54.9725 120.599 54.9072 120.429 54.7698 120.257C54.6324 120.084 54.3576 119.74 54.3798 119.543C54.402 119.347 54.5513 119.092 54.6179 118.822C54.6846 118.553 54.6063 118.23 54.8978 118.106L55.1893 117.982L55.5532 116.841C55.5532 116.841 55.5174 116.09 55.5079 115.853C55.4983 115.617 55.4546 115.256 55.4767 115.06C55.4989 114.863 55.2066 114.674 55.1601 114.391C55.1136 114.108 54.8909 112.232 54.8909 112.232L54.2114 111.251L53.2597 109.527C53.2597 109.527 52.7263 108.641 52.5162 108.418C52.306 108.195 51.7977 107.782 51.5916 107.524C51.3855 107.265 50.9672 106.428 50.7369 106.01C50.5065 105.592 50.0573 105.029 49.7785 104.72C49.4997 104.411 49.3488 104.358 49.1104 104.011C48.872 103.665 48.61 103.207 48.2672 102.771C47.9243 102.334 47.3843 101.881 47.2779 101.754C47.1715 101.628 46.4114 98.1529 46.4241 98.0398L46.582 96.6404C46.582 96.6404 46.7021 94.881 46.797 94.7349C46.8919 94.5888 47.3496 94.0073 47.4949 93.7885C47.6402 93.5697 47.5046 91.9382 47.5267 91.7417C47.5489 91.5452 47.2371 91.1542 47.4773 90.7894C47.7175 90.4245 48.1395 89.8389 48.1395 89.8389L48.9566 88.9059C48.9566 88.9059 49.4521 88.6844 49.7388 88.6021C50.0256 88.5199 50.9189 88.3011 51.1183 88.2452C51.3176 88.1893 51.4697 88.2848 52.0971 87.9636C52.7245 87.6424 52.7662 87.6471 53.0477 87.5582C53.3291 87.4694 53.7814 87.3636 54.0891 87.0425C54.3968 86.7214 54.606 86.3108 55.1472 86.0583C55.6884 85.8058 56.0425 85.4477 56.1327 85.3433C56.2229 85.2389 57.1064 83.7164 57.1064 83.7164C57.1064 83.7164 57.3619 82.521 57.4326 82.2154C57.5033 81.9098 57.8692 80.8053 57.9282 79.9074C57.9873 79.0095 57.9581 78.2524 57.9883 77.9844C58.0186 77.7165 58.0822 76.4572 58.0822 76.4572L58.9593 73.6013C58.9593 73.6013 59.5334 72.6831 59.5933 72.527C59.6531 72.3709 60.1432 72.197 60.1432 72.197L61.2698 70.2316C61.2698 70.2316 62.3541 69.0151 62.445 68.9048C62.5358 68.7944 63.3112 67.8567 63.3112 67.8567C63.3112 67.8567 64.2589 66.7816 64.4311 66.3247C64.6033 65.8677 64.948 65.593 65.0321 65.1683C65.1162 64.7436 64.9479 64.8452 65.2479 64.3242C65.548 63.8033 66.0291 62.6394 66.0291 62.6394L67.5248 61.6262L68.7049 61.3251C68.7049 61.3251 69.3525 61.1991 69.5336 60.9844C69.7147 60.7696 69.8647 60.5091 70.1037 60.1019C70.3426 59.6947 70.4697 59.317 70.7705 59.1097C71.0714 58.9025 71.029 58.9037 71.5575 58.7643C72.086 58.6249 71.789 58.4769 72.7976 58.6268C73.8061 58.7768 74.8955 58.9057 75.2052 58.9406L77.0339 59.1469C77.5402 59.204 78.5615 59.2409 78.5615 59.2409C78.5615 59.2409 79.1848 58.9554 79.275 58.851C79.3652 58.7466 79.7272 57.9974 79.9817 57.8271C80.2362 57.6568 81.6014 57.1053 81.8201 56.9309C82.0388 56.7566 82.3835 56.4819 82.8171 56.4886C83.2506 56.4953 83.6882 56.4663 84.0841 56.4325C84.48 56.3988 85.2004 56.3233 85.6467 56.2168C86.093 56.1104 85.8432 56.239 86.4579 56.031C87.0725 55.8229 87.7773 55.5104 88.0143 55.4949C88.2513 55.4795 87.8729 55.3584 88.8121 55.4281C89.7513 55.4979 90.2206 55.5086 90.4172 55.5308C90.6137 55.553 92.4645 55.5628 92.6234 55.5445C92.7823 55.5263 93.4259 55.436 93.6293 55.3444C93.8326 55.2528 94.1201 55.1646 94.4075 55.0764C94.6949 54.9882 95.0134 54.9457 95.1365 54.9235C95.2597 54.9012 96.155 54.2906 96.155 54.2906L97.3487 54.19C97.5499 54.1705 97.8967 54.2519 98.2326 54.0546C98.5685 53.8573 99.0653 53.6781 99.274 53.5389C99.4828 53.3996 99.6476 53.382 99.9478 53.1807C100.248 52.9794 100.348 52.7916 100.699 52.8312C101.05 52.8709 102.939 53.2407 103.255 53.2763C103.57 53.3119 103.684 53.3247 104.314 53.3536C104.944 53.3825 105.936 53.3014 106.319 53.3808C106.703 53.4602 108.486 53.7459 108.765 53.7351C109.043 53.7243 109.311 53.4409 110.228 53.7012C111.146 53.9615 111.957 54.0953 112.291 54.2897C112.625 54.4842 112.999 54.647 113.647 54.8347C114.296 55.0224 114.68 55.1501 115.025 55.1891L116.038 55.3033C116.234 55.3255 119.203 55.5821 119.203 55.5821C119.203 55.5821 120.793 56.1956 120.98 56.2528C121.166 56.3101 121.615 56.5596 122.125 56.581C122.635 56.6024 124.205 56.6951 124.4 56.6809C124.594 56.6667 124.623 56.7845 125.194 56.6498C125.764 56.5151 125.799 56.5192 126.491 56.3258C127.182 56.1324 127.788 56.0018 128.144 55.9997C128.5 55.9977 128.883 56.083 129.393 55.7848C129.903 55.4866 129.815 55.1992 130.754 55.269C131.693 55.3387 132.565 55.3164 132.788 55.42C133.012 55.5236 133.432 55.6494 133.958 55.9078C134.483 56.1661 134.444 55.7637 134.972 56.378C135.5 56.9924 135.609 57.0409 135.875 57.4629C136.141 57.8849 136.145 57.8491 136.439 58.0812C136.733 58.3134 136.682 58.3861 137.503 58.4364C138.324 58.4868 138.004 58.5353 138.834 58.5082C139.663 58.4812 140.325 58.5558 140.452 58.4918C140.58 58.4278 141.153 58.2151 141.42 57.9316C141.688 57.6482 141.732 57.2552 142.151 57.0673C142.571 56.8794 142.865 56.6774 143.184 56.629C143.503 56.5806 143.827 56.5447 144.059 56.5709C144.292 56.5971 145.479 56.93 145.479 56.93L146.58 57.6453C146.58 57.6453 147.123 57.7488 147.447 57.6646C147.77 57.5805 148.782 57.3811 148.782 57.3811C148.782 57.3811 148.704 57.3723 149.185 56.9562C149.667 56.5401 149.594 56.4897 149.84 56.3968C150.085 56.304 150.998 56.2923 151.274 56.2451C151.551 56.1979 154.015 55.3723 154.015 55.3723C154.015 55.3723 153.978 55.3259 154.702 54.895C155.426 54.4641 156.048 53.8226 157.073 53.8237C158.098 53.8248 159.317 53.8779 159.713 53.8441C160.109 53.8104 160.456 53.8858 160.701 53.7988C160.946 53.7119 161.38 53.7186 161.638 53.5126C161.897 53.3065 162.193 53.1409 162.193 53.1409C162.193 53.1409 162.969 53.2707 163.464 52.7295C163.959 52.1884 164.076 51.8518 164.453 51.6592C164.831 51.4666 164.252 51.359 165.158 51.3467C166.064 51.3344 165.364 51.2915 166.996 51.4756C168.628 51.6597 167.588 51.464 168.902 51.6906C170.215 51.9172 170.374 51.8989 170.558 52.0342C170.742 52.1696 170.66 52.5162 171.39 52.6829C172.119 52.8496 171.149 52.7341 172.717 52.7904C174.285 52.8466 174.64 52.8506 174.64 52.8506C174.64 52.8506 175.379 52.9339 175.712 52.8147C176.045 52.6955 176.216 52.5158 176.216 52.5158C176.216 52.5158 177.122 52.1838 177.235 52.1966C177.349 52.2093 178.201 52.0281 178.553 52.0678L180.346 52.27C180.346 52.27 181.144 52.5169 181.619 52.5343C182.094 52.5516 182.554 52.6398 182.85 52.4742C183.146 52.3086 183.892 51.9585 184.16 51.7174C184.429 51.4763 184.961 51.2529 185.252 51.129C185.544 51.005 186.108 50.8697 186.527 50.6818C186.946 50.4939 187.851 50.1196 187.851 50.1196C187.851 50.1196 188.069 48.8838 188.128 48.7337C188.187 48.5836 187.944 48.2787 188.344 47.8896C188.744 47.5005 188.835 47.3902 189.13 47.2305C189.426 47.0709 189.566 46.8455 189.853 46.7573C190.141 46.6691 190.677 46.4583 191.05 46.633C191.422 46.8076 192.084 46.9246 192.27 46.9878C192.456 47.0509 192.914 47.2172 193.088 47.4358C193.263 47.6545 193.352 48.2556 193.352 48.2556L193.371 48.2457Z"></path>
<path fill="white" d="M128.711 327.357L127.621 327.234L127.2 328.133L126.725 328.869L127.469 330.292L128.333 330.709L129.855 329.777L130.39 328.571L129.878 327.488L128.711 327.357Z"></path>
<path fill="white" d="M115.03 340.25L113.606 339.619L112.02 338.97L109.53 338.689C109.53 338.689 108.861 339.005 108.543 339.048C108.224 339.09 107.555 339.407 107.555 339.407L106.738 340.34L106.633 341.275C106.633 341.275 106.803 341.849 107.018 342.03C107.233 342.211 107.677 342.496 107.883 342.761C108.088 343.025 108.157 343.105 108.351 343.525C108.545 343.945 108.289 344.073 108.829 344.212C109.368 344.351 109.394 344.119 109.841 344.326C110.288 344.534 110.454 344.51 111.084 344.485C111.714 344.459 112.116 344.426 112.366 344.298C112.616 344.169 113.131 343.829 113.63 343.572C114.13 343.315 114.095 343.624 114.713 343.061C115.332 342.497 115.457 342.777 115.52 342.217C115.583 341.657 115.73 341.752 115.645 341.116C115.56 340.479 115.03 340.256 115.03 340.256L115.03 340.25Z"></path>
<path fill="white" d="M123.27 344.098L122.489 344.01L121.535 344.771C121.535 344.771 121.063 345.478 121.04 345.686C121.016 345.895 121.419 346.495 120.928 346.675C120.437 346.854 119.828 347.34 119.828 347.34C119.245 347.588 118.161 348.099 118.161 348.099C118.161 348.099 117.732 347.737 118.1 348.647C118.468 349.557 118.731 350.057 118.731 350.057L119.483 351.089L121.741 351.343C121.741 351.343 122.704 350.505 122.496 350.958C122.288 351.411 122.373 352.205 122.373 352.205L123.291 352.308C123.89 352.611 124.743 352.002 124.743 352.002C124.743 352.002 125.132 351.334 125.158 351.102L125.281 350.012L126.2 349.561C126.2 349.561 126.441 349.51 126.656 349.691C126.871 349.872 127.254 350.705 127.254 350.705L127.694 352.413L128.206 353.496L129.64 353.344C129.64 353.344 129.976 353.147 130.08 352.923C130.184 352.7 130.625 351.568 130.625 351.568C130.625 351.568 130.92 350.341 130.792 350.091C130.663 349.841 130.725 349.293 130.596 349.044C130.467 348.794 130.598 348.332 129.999 348.03C129.399 347.727 128.267 347.279 128.267 347.279L126.953 346.365C126.953 346.365 126.209 346.649 125.745 346.597C125.28 346.544 124.158 346.653 124.158 346.653L123.838 346.008L123.732 344.868L123.263 344.104L123.27 344.098Z"></path>
<path fill="white" d="M215.312 45.1611C215.312 45.1611 216.698 45.4381 216.95 45.3459C217.201 45.2536 217.639 45.5442 217.944 45.4581C218.25 45.3719 219.586 45.6071 219.586 45.6071L219.749 46.2526C219.749 46.2526 219.69 46.7766 219.378 46.9224C219.066 47.0681 218.052 47.6593 218.052 47.6593C218.052 47.6593 217.309 47.9313 217.253 48.1602C217.197 48.3891 216.972 48.84 216.872 49.1846C216.773 49.5292 216.873 49.7153 216.581 50.2191C216.289 50.7229 215.68 51.3598 215.68 51.3598L215.21 52.9048L214.362 53.581C214.362 53.581 214.11 53.7275 213.194 53.4493C212.279 53.1711 212 53.0191 211.934 52.5352C211.868 52.0514 211.94 51.945 212.092 51.1359C212.244 50.3268 211.675 49.9672 212.231 49.3183C212.786 48.6694 212.574 48.4705 213.117 47.8202C213.661 47.17 213.926 46.9646 213.846 46.5999C213.767 46.2351 213.388 45.9572 213.646 45.7512C213.905 45.5451 214.674 45.0349 214.674 45.0349L215.311 45.167L215.312 45.1611Z"></path>
<path fill="white" d="M304.508 101.543L305.443 101.649L306.193 102.325C306.193 102.325 306.539 103.431 306.466 103.598C306.393 103.764 306.281 104.168 306.029 104.32C305.776 104.473 304.835 104.957 304.835 104.957C304.835 104.957 304.324 104.779 304.132 104.878C303.94 104.977 302.679 104.654 302.646 104.415C302.613 104.176 302.534 103.317 302.506 103.03C302.478 102.744 302.412 102.32 302.611 102.107C302.81 101.895 303.664 101.696 303.664 101.696L304.507 101.555L304.508 101.543Z"></path>
<path fill="white" d="M299.202 198.952L300.137 199.058L300.628 199.408C300.628 199.408 300.489 200.104 300.529 200.284C300.569 200.463 300.49 200.635 300.49 200.635L301.684 199.998L302.5 200.09C302.5 200.09 303.249 200.295 303.269 200.593C303.29 200.891 302.984 201.568 303.131 201.82C303.278 202.071 302.94 202.98 302.727 203.312C302.515 203.644 301.541 204.36 301.362 204.4C301.183 204.44 299.691 204.507 299.452 204.54C299.213 204.574 298.55 204.674 298.55 204.674C298.55 204.674 297.409 204.31 297.402 203.833C297.396 203.356 297.568 202.905 297.574 202.314C297.58 201.724 297.631 202.025 297.694 201.086C297.758 200.146 297.65 199.663 297.879 199.448C298.108 199.233 298.44 198.86 298.44 198.86L299.202 198.946L299.202 198.952Z"></path>
<path fill="white" d="M385.726 156.248L387.013 156.393L388.26 157.42C388.26 157.42 389.044 158.871 389.084 159.051C389.124 159.23 389.668 160.715 389.848 161.206C390.028 161.696 390.247 161.841 390.307 162.379C390.367 162.916 389.978 165.297 389.978 165.297C389.978 165.297 390.278 166.808 390.364 167.113C390.45 167.418 390.577 168.38 390.895 168.711C391.214 169.042 391.446 169.069 391.618 169.148C391.79 169.228 392.865 169.645 393.277 169.631C393.689 169.617 394.926 169.715 395.26 169.861C395.593 170.007 395.561 171.366 395.561 171.366C395.561 171.366 395.329 171.871 394.944 172.123C394.56 172.375 394.314 172.468 394.023 172.966C393.731 173.463 392.34 174.784 392.34 174.784C392.34 174.784 391.784 176.024 391.638 176.303C391.492 176.582 391.227 176.787 391.008 177.178C390.789 177.57 389.075 177.787 389.075 177.787C389.075 177.787 388.502 177.366 388.295 177.108C388.089 176.849 387.758 176.1 387.757 175.569C387.757 175.039 387.73 174.264 387.782 173.799C387.834 173.335 388.013 172.818 387.993 172.46C387.973 172.102 387.534 171.287 387.369 171.148C387.204 171.008 386.54 170.638 386.274 170.373C386.009 170.108 385.133 169.472 385.034 169.286C384.934 169.1 384.595 169.001 384.608 168.352C384.621 167.702 384.295 166.953 384.561 166.688C384.826 166.422 384.792 163.994 384.792 163.994C384.792 163.994 385.287 162.868 385.313 162.636C385.34 162.404 385.296 162.043 385.049 161.719C384.802 161.396 384.005 160.064 384.005 160.064L383.877 158.041L384.527 156.456L385.734 156.237L385.726 156.248Z"></path>
<path fill="white" d="M362.414 137.414L362.713 138.455L362.243 138.932C362.243 138.932 361.387 139.192 361.136 139.278C360.885 139.364 359.718 139.769 359.718 139.769C359.718 139.769 359.082 140.168 359.022 140.698C358.962 141.228 358.658 141.839 358.877 141.984C359.096 142.129 360.124 142.481 360.124 142.481L364.561 142.981C364.561 142.981 365.012 143.153 365.224 143.412C365.437 143.671 365.994 143.915 366.133 144.286C366.272 144.658 366.605 144.81 366.459 145.565C366.314 146.321 366.087 146.886 366.268 147.317C366.449 147.747 365.731 147.316 366.806 148.264L367.882 149.211C367.882 149.211 368.22 149.901 368.644 149.297C369.068 148.694 369.34 147.838 369.34 147.838C369.34 147.838 369.134 147.58 369.817 147.301C370.5 147.022 370.971 147.015 370.971 147.015L372.941 147.358L373.75 147.509L374.486 147.828L375.475 149.007C375.475 149.007 375.821 149.637 375.96 149.948C376.1 150.259 376.399 150.769 376.717 151.101C377.036 151.432 377.414 151.77 377.799 151.994C378.184 152.219 378.767 152.339 379.098 152.557C379.43 152.775 379.901 152.768 380.173 152.974C380.446 153.18 381.016 153.364 380.997 153.537C380.977 153.71 381.196 153.855 380.924 154.18C380.652 154.505 380.52 154.605 380.268 154.758C380.015 154.91 379.877 155.069 379.041 155.15C378.206 155.23 377.894 155.376 377.894 155.376C377.894 155.376 376.833 155.848 376.561 156.173C376.289 156.498 375.534 157.42 375.534 157.42C375.534 157.42 375.395 157.579 375.11 158.023C374.824 158.467 374.48 158.899 374.361 159.416C374.243 159.933 374.563 161.803 374.563 161.803L374.046 162.691C374.046 162.691 374.113 163.169 374.365 163.553C374.618 163.938 375.142 164.528 375.309 165.137C375.475 165.747 375.673 165.595 375.661 166.184C375.649 166.774 375.238 168.386 375.238 168.386C375.238 168.386 374.004 168.838 373.812 168.937C373.62 169.036 372.36 169.243 371.896 169.136C371.431 169.03 369.614 168.885 369.614 168.885L368.201 167.773C368.201 167.773 367.485 167.276 367.093 167.117C366.7 166.958 366.085 166.587 365.686 166.488C365.287 166.389 364.511 166.416 363.987 166.357C363.463 166.298 361.673 166.391 361.434 166.425C361.195 166.458 361.52 166.73 360.42 166.485C359.319 166.24 358.53 165.916 358.185 165.817C357.84 165.718 357.242 165.24 357.242 165.24C357.242 165.24 356.088 163.928 355.902 163.491C355.716 163.054 354.581 162.099 354.581 162.099C354.581 162.099 354.46 161.616 354.308 161.357C354.157 161.099 353.617 160.158 353.617 160.158C353.617 160.158 353.372 159.714 352.974 159.554C352.575 159.395 350.559 158.926 350.559 158.926C350.559 158.926 351.203 158.999 350.035 158.867C348.868 158.735 348.125 158.477 347.714 158.484C347.302 158.492 346.653 158.425 346.5 158.227C346.347 158.029 346.374 158.273 346.162 157.537C345.949 156.802 346.201 156.655 345.835 156.258C345.47 155.861 345.258 155.602 344.867 155.377C344.476 155.152 344.33 154.901 344.164 154.767C343.998 154.634 344.13 154.528 343.553 154.403C342.976 154.277 341.982 154.165 341.982 154.165C341.982 154.165 341.332 154.152 340.913 153.689C340.495 153.226 340.223 152.96 340.017 152.701C339.811 152.443 339.699 152.37 339.194 151.601C338.69 150.833 338.211 150.375 337.959 149.985C337.708 149.594 337.874 149.673 337.283 149.136C336.692 148.599 336.606 148.288 336.168 148.004C335.729 147.719 335.418 147.328 335.02 147.163C334.623 146.997 333.932 146.865 333.932 146.865L332.996 146.229C332.996 146.229 333.108 145.771 333.082 145.466C333.056 145.162 332.346 145.148 333.161 144.764C333.977 144.379 334.832 144.126 334.832 144.126C334.832 144.126 335.633 142.799 335.653 142.621C335.673 142.442 335.884 141.109 335.732 140.856C335.579 140.604 335.386 140.227 335.353 140.042C335.319 139.857 334.934 138.517 334.934 138.517L333.633 137.484C333.633 137.484 332.949 136.755 332.518 136.351C332.087 135.947 332.046 135.827 331.509 135.351C330.971 134.874 329.976 134.231 329.817 134.092C329.658 133.954 328.761 133.503 328.735 133.199C328.709 132.894 328.25 131.727 328.25 131.727C328.25 131.727 327.905 131.097 328.349 130.851C328.793 130.606 329.396 129.962 329.396 129.962L329.894 129.723C329.894 129.723 330.311 129.71 330.596 129.802C330.882 129.895 332.069 130.384 332.069 130.384L332.507 131.206C332.507 131.206 333.622 132.339 333.795 132.358C333.967 132.378 334.305 132.536 334.511 132.318C334.717 132.1 334.928 131.774 335.008 131.603C335.088 131.431 334.929 131.238 335.293 131.164C335.657 131.091 336.135 131.024 336.314 131.044C336.492 131.064 337.302 131.216 337.302 131.216L337.607 132.197L337.992 132.476C337.992 132.476 338.35 131.925 338.508 131.587C338.667 131.249 338.608 131.243 338.807 131.03C339.005 130.817 339.27 130.612 339.582 130.466C339.894 130.32 340.683 130.174 340.683 130.174C340.683 130.174 341.014 129.856 341.385 130.254C341.757 130.651 341.923 130.73 342.367 131.016C342.812 131.301 342.858 130.836 343.362 131.659C343.867 132.481 344.14 133.163 344.14 133.163C344.14 133.163 344.247 133.766 344.128 134.82C344.009 135.874 343.983 137.168 343.951 137.46C343.918 137.752 343.839 137.918 343.799 138.269C343.759 138.62 343.468 139.118 344.291 139.151C345.113 139.183 345.591 139.177 346.061 139.175C346.532 139.174 347.248 139.134 347.434 139.095C347.619 139.056 348.627 138.995 348.832 138.782C349.037 138.57 349.111 138.398 349.429 138.198C349.747 137.999 350.364 137.773 350.364 137.773C350.364 137.773 350.894 137.242 351.365 137.295C351.835 137.348 352.266 137.162 352.532 137.427C352.798 137.692 353.481 138.481 353.481 138.481C353.481 138.481 353.574 138.726 353.793 138.872C354.012 139.017 354.37 138.997 354.37 138.997C354.37 138.997 354.611 139.32 355.008 139.009C355.405 138.698 356.067 138.121 356.067 138.121L357.234 137.246C357.234 137.246 357.724 137.066 358.002 136.741C358.28 136.417 358.472 136.264 358.784 136.118C359.096 135.972 359.348 135.826 359.939 135.832C360.529 135.838 361.749 136.036 361.909 136.175C362.068 136.314 362.426 136.294 362.46 136.533C362.493 136.772 362.42 137.415 362.42 137.415L362.414 137.414Z"></path>
</g>
</mask>
<g mask="url(#mask0_3235_9674)">
<path fill="#19254E" d="M24 53.9487C24 47.3213 29.3726 41.9487 36 41.9487L392 41.9487C398.627 41.9487 404 47.3213 404 53.9487V516.949C404 523.576 398.627 528.949 392 528.949H36C29.3726 528.949 24 523.576 24 516.949L24 53.9487Z"></path>
</g>
<path fill="#FFB800" d="M266.323 248.302C275.65 248.302 283.211 255.108 283.211 263.503C283.211 277.21 266.323 291.731 266.323 291.731C266.323 291.731 249.434 277.332 249.434 263.503C249.434 255.108 256.995 248.302 266.323 248.302Z" clip-rule="evenodd" fill-rule="evenodd"></path>
<path fill-opacity="0.4" fill="#19254E" d="M266.315 272.297C270.242 272.297 273.426 269.113 273.426 265.185C273.426 261.258 270.242 258.074 266.315 258.074C262.387 258.074 259.203 261.258 259.203 265.185C259.203 269.113 262.387 272.297 266.315 272.297Z"></path>
<defs>
<clipPath id="clip0_3235_9674">
<rect transform="translate(54.4062 26.9487) rotate(6.43639)" fill="white" height="485.341" width="355.194"></rect>
</clipPath>
</defs>
</svg>
