<svg width="24" height="24" viewBox="0 0 24 24" fill="none" xmlns="http://www.w3.org/2000/svg">
<path d="M9.42188 5.27808C9.42188 4.89722 9.71484 4.57495 10.125 4.57495H12.4688C12.8496 4.57495 13.1719 4.89722 13.1719 5.27808V6.86011C13.4648 6.97729 13.7578 7.15308 14.0508 7.35815L14.2266 7.47534C14.8711 8.00269 15.2812 8.7937 15.2812 9.61401C15.2812 9.99487 15.1934 10.3464 15.0762 10.6687C15.1934 10.9617 15.2812 11.2839 15.2812 11.6062C15.2812 11.9578 15.1934 12.28 15.0762 12.5437C15.1934 12.8367 15.2812 13.1589 15.2812 13.4812C15.2812 13.8328 15.1934 14.155 15.0762 14.4187C15.1934 14.7117 15.2812 15.0339 15.2812 15.3562C15.2812 15.7078 15.1934 16.03 15.0762 16.2937C15.1934 16.5867 15.2812 16.9089 15.2812 17.2312C15.2812 18.5496 14.2266 19.575 12.9375 19.575H9.65625C8.33789 19.575 7.3125 18.5496 7.3125 17.2312C7.3125 16.9089 7.37109 16.5867 7.48828 16.2937C7.37109 16.03 7.3125 15.7078 7.3125 15.3562C7.3125 15.0339 7.37109 14.7117 7.48828 14.4187C7.37109 14.155 7.3125 13.8328 7.3125 13.4812C7.3125 13.1589 7.37109 12.8367 7.48828 12.5437C7.37109 12.28 7.3125 11.9578 7.3125 11.6062C7.3125 11.2839 7.37109 10.9617 7.51758 10.6687C7.37109 10.3464 7.3125 9.99487 7.3125 9.61401C7.3125 8.7937 7.69336 8.00269 8.36719 7.47534L8.54297 7.35815C8.80664 7.15308 9.09961 6.97729 9.42188 6.86011V5.27808ZM13.5527 10.6687C13.5527 10.5515 13.6113 10.4343 13.6699 10.3171C13.7871 10.1121 13.875 9.87769 13.875 9.61401C13.875 9.23315 13.6699 8.85229 13.3477 8.58862L13.1719 8.47144C12.8789 8.23706 12.498 8.09058 12.1172 8.09058H10.4473C10.0664 8.09058 9.68555 8.23706 9.39258 8.47144L9.2168 8.58862C8.89453 8.85229 8.68945 9.23315 8.68945 9.61401C8.68945 9.87769 8.77734 10.1121 8.89453 10.3171C8.98242 10.4343 9.01172 10.5515 9.01172 10.6687H13.5527ZM9.01172 14.4187C9.01172 14.5652 8.95312 14.7117 8.86523 14.8289C8.77734 14.9753 8.71875 15.1804 8.71875 15.3562C8.71875 15.5613 8.77734 15.7664 8.86523 15.9128C9.04102 16.1472 9.04102 16.4695 8.86523 16.7039C8.77734 16.8503 8.71875 17.0554 8.71875 17.2312C8.71875 17.7585 9.12891 18.1687 9.65625 18.1687H12.9375C13.4355 18.1687 13.875 17.7585 13.875 17.2312C13.875 17.0554 13.7871 16.8503 13.6992 16.7039C13.5234 16.4695 13.5234 16.1472 13.6992 15.9128C13.7871 15.7371 13.875 15.5613 13.875 15.3562C13.875 15.1511 13.7871 14.9753 13.6992 14.8289C13.6113 14.7117 13.582 14.5652 13.582 14.4187H9.01172Z" fill="#FCFEFF"/>
<path d="M2.77148 4.86792C3.00586 4.54565 3.44531 4.48706 3.73828 4.75073L21.082 18.3445C21.4043 18.5789 21.4629 19.0183 21.1992 19.3113C20.9648 19.6335 20.5254 19.6921 20.2324 19.4285L2.88867 5.83472C2.56641 5.60034 2.50781 5.16089 2.77148 4.86792Z" fill="#FCFEFF"/>
</svg>
