<svg width="48" height="32" viewBox="0 0 48 32" fill="none" xmlns="http://www.w3.org/2000/svg">
<g clip-path="url(#clip0_2253_3819)">
<rect width="48" height="32" rx="2" fill="white"/>
<path d="M19.8699 20.2124L21.2932 11.8598H23.5698L22.1455 20.2124H19.8699Z" fill="#0E4595"/>
<path d="M30.3704 12.04C29.9194 11.8707 29.2127 11.6891 28.33 11.6891C26.0804 11.6891 24.4959 12.822 24.4823 14.4456C24.4697 15.6458 25.6136 16.3153 26.4772 16.7148C27.3634 17.1243 27.6613 17.3854 27.657 17.7509C27.6513 18.3108 26.9493 18.5665 26.2949 18.5665C25.3838 18.5665 24.8997 18.4399 24.152 18.1281L23.8586 17.9954L23.5391 19.8651C24.0708 20.0984 25.0541 20.3003 26.0751 20.3108C28.4683 20.3108 30.0218 19.1909 30.0395 17.4571C30.048 16.5069 29.4415 15.7839 28.128 15.1877C27.3323 14.8013 26.8449 14.5435 26.8501 14.1523C26.8501 13.8051 27.2626 13.4338 28.1539 13.4338C28.8983 13.4223 29.4377 13.5846 29.8579 13.7538L30.0619 13.8502L30.3704 12.04Z" fill="#0E4595"/>
<path d="M36.229 11.8598H34.4698C33.9249 11.8598 33.517 12.0085 33.2777 12.5525L29.8966 20.2069H32.2873C32.2873 20.2069 32.6781 19.1778 32.7665 18.9518C33.0277 18.9518 35.3502 18.9554 35.6822 18.9554C35.7503 19.2478 35.9592 20.2069 35.9592 20.2069H38.0717L36.229 11.8598ZM33.4379 17.2532C33.6262 16.772 34.3449 14.9183 34.3449 14.9183C34.3316 14.9405 34.5319 14.4347 34.6468 14.1211L34.8007 14.8413C34.8007 14.8413 35.2366 16.835 35.3277 17.2531H33.4379V17.2532Z" fill="#0E4595"/>
<path d="M9.95755 11.8598L9.92847 12.0336C10.8284 12.2514 11.6322 12.5667 12.336 12.959L14.3561 20.199L16.7648 20.1963L20.349 11.8598H17.9372L15.7084 17.5556L15.471 16.3981C15.4598 16.3623 15.4478 16.3265 15.4354 16.2906L14.6606 12.565C14.5228 12.0361 14.1231 11.8782 13.6286 11.8598H9.95755Z" fill="#0E4595"/>
</g>
<defs>
<clipPath id="clip0_2253_3819">
<rect width="48" height="32" fill="white"/>
</clipPath>
</defs>
</svg>
