<svg width="48" height="32" viewBox="0 0 48 32" fill="none" xmlns="http://www.w3.org/2000/svg">
<g clip-path="url(#clip0_2253_3825)">
<rect width="48" height="32" rx="2" fill="white"/>
<g clip-path="url(#clip1_2253_3825)">
<path d="M23.1348 15.8552V19.5789H21.9525V10.3809H25.0864C25.8424 10.3648 26.573 10.6517 27.1158 11.1771C27.6654 11.6718 27.9751 12.3795 27.963 13.1181C27.9791 13.862 27.6694 14.5751 27.1158 15.0711C26.5676 15.5938 25.8907 15.8552 25.0864 15.8539L23.1348 15.8552ZM23.1348 11.5136V14.7252H25.1159C25.5556 14.7386 25.9792 14.5657 26.2848 14.2494C26.9054 13.6462 26.9201 12.6529 26.3156 12.0323C26.3049 12.0216 26.2955 12.0109 26.2848 12.0015C25.9832 11.6785 25.5569 11.5015 25.1159 11.5136H23.1348ZM30.6867 13.0805C31.5607 13.0805 32.2497 13.3138 32.755 13.7802C33.2604 14.2467 33.5124 14.8874 33.5124 15.6997V19.5789H32.3824V18.705H32.3314C31.8422 19.4248 31.1907 19.784 30.3784 19.784C29.6854 19.784 29.105 19.5789 28.6386 19.1674C28.1855 18.7854 27.9281 18.2197 27.9389 17.6259C27.9389 16.9745 28.1855 16.4571 28.6774 16.0724C29.1694 15.6877 29.8262 15.4946 30.6492 15.4946C31.3502 15.4946 31.9293 15.6233 32.3824 15.8794V15.6086C32.3851 15.2038 32.2054 14.8204 31.8945 14.5631C31.5821 14.2816 31.1746 14.1274 30.7538 14.1328C30.0943 14.1328 29.5715 14.4116 29.1868 14.9679L28.1466 14.3124C28.7176 13.4907 29.5648 13.0805 30.6867 13.0805ZM29.1573 17.6527C29.156 17.9584 29.3021 18.2452 29.5487 18.4235C29.8101 18.6286 30.1345 18.7385 30.4669 18.7318C30.9655 18.7304 31.4441 18.5321 31.7966 18.1795C32.188 17.8109 32.3837 17.3793 32.3837 16.882C32.0151 16.5884 31.5017 16.441 30.8422 16.441C30.3623 16.441 29.9616 16.5563 29.6412 16.7882C29.3182 17.0241 29.1573 17.3096 29.1573 17.6527ZM40 13.2856L36.0551 22.3536H34.8354L36.2991 19.1808L33.704 13.2856H34.9882L36.8634 17.8069H36.8889L38.7132 13.2856H40Z" fill="#5F6368"/>
<path d="M18.3588 15.051C18.3588 14.6904 18.3293 14.3312 18.2676 13.976H13.2839V16.0107H16.1377C16.0197 16.6675 15.6391 17.2479 15.0828 17.6165V18.9382H16.7865C17.7837 18.02 18.3588 16.6595 18.3588 15.051Z" fill="#4285F4"/>
<path d="M13.284 20.2156C14.7102 20.2156 15.9112 19.7478 16.7865 18.9395L15.0828 17.6179C14.6083 17.9396 13.9984 18.1232 13.284 18.1232C11.906 18.1232 10.7358 17.1943 10.3176 15.9424H8.56299V17.3042C9.45973 19.0897 11.2867 20.2156 13.284 20.2156Z" fill="#34A853"/>
<path d="M10.3176 15.9423C10.0964 15.2869 10.0964 14.5751 10.3176 13.9196V12.5578H8.56298C7.81234 14.051 7.81234 15.811 8.56298 17.3042L10.3176 15.9423Z" fill="#FBBC04"/>
<path d="M13.284 11.7388C14.0373 11.7267 14.7651 12.0109 15.3107 12.531L16.82 11.023C15.863 10.1249 14.5962 9.63163 13.284 9.64638C11.2867 9.64638 9.45973 10.7737 8.56299 12.5578L10.3176 13.9197C10.7358 12.6677 11.906 11.7388 13.284 11.7388Z" fill="#EA4335"/>
</g>
</g>
<defs>
<clipPath id="clip0_2253_3825">
<rect width="48" height="32" fill="white"/>
</clipPath>
<clipPath id="clip1_2253_3825">
<rect width="32" height="32" fill="white" transform="translate(8)"/>
</clipPath>
</defs>
</svg>
