<svg width="48" height="32" viewBox="0 0 48 32" fill="none" xmlns="http://www.w3.org/2000/svg">
<g clip-path="url(#clip0_2253_3808)">
<rect width="48" height="32" rx="2" fill="white"/>
<path d="M31.0048 11.8765L19.6425 24.2748H15.475C15.1856 24.2748 14.9541 23.9854 15.012 23.696L17.7903 6.09986C17.8482 5.69468 18.1955 5.40527 18.6007 5.40527H25.6623C30.5244 5.57892 31.8557 8.06785 30.9874 11.8881L31.0048 11.8765Z" fill="#002C8A"/>
<path d="M31.19 10.7304C32.9265 11.6565 33.3317 13.393 32.7529 15.7083C32.0004 19.1233 29.743 20.5704 26.4437 20.6282L25.5176 20.6861C25.1703 20.6861 24.9388 20.9176 24.8809 21.2649L24.1284 25.8376C24.0705 26.2428 23.7233 26.5322 23.3181 26.5322H19.8452C19.5557 26.5322 19.3242 26.2428 19.3821 25.9534L20.6555 17.6763C20.7134 17.3868 31.19 10.7304 31.19 10.7304Z" fill="#009BE1"/>
<path d="M20.5851 18.0815L21.7427 10.7305C21.7807 10.5564 21.875 10.3996 22.011 10.2845C22.147 10.1694 22.3172 10.1024 22.4952 10.0938H28.0519C29.3832 10.0938 30.3671 10.3253 31.1775 10.7305C30.8881 13.2773 29.6726 17.3869 23.7686 17.5027H21.2218C20.9324 17.5027 20.643 17.7342 20.5851 18.0815Z" fill="#001F6B"/>
</g>
<defs>
<clipPath id="clip0_2253_3808">
<rect width="48" height="32" fill="white"/>
</clipPath>
</defs>
</svg>
