<svg width="48" height="32" viewBox="0 0 48 32" fill="none" xmlns="http://www.w3.org/2000/svg">
<g clip-path="url(#clip0_2253_3831)">
<rect width="48" height="32" rx="2" fill="white"/>
<path d="M27.8412 22.5779H20.3079V9.13995H27.8412V22.5779Z" fill="#FF5F00"/>
<path d="M20.7884 15.8583C20.7884 13.1323 22.0743 10.7041 24.0767 9.13926C22.6124 7.995 20.7643 7.31201 18.7558 7.31201C14.001 7.31201 10.1466 11.1383 10.1466 15.8583C10.1466 20.5782 14.001 24.4044 18.7558 24.4044C20.7643 24.4044 22.6124 23.7215 24.0767 22.5772C22.0743 21.0124 20.7884 18.5842 20.7884 15.8583Z" fill="#EB001B"/>
<path d="M38 15.8583C38 20.5782 34.1456 24.4044 29.3908 24.4044C27.3823 24.4044 25.5342 23.7215 24.0693 22.5772C26.0723 21.0124 27.3582 18.5842 27.3582 15.8583C27.3582 13.1323 26.0723 10.7041 24.0693 9.13926C25.5342 7.995 27.3823 7.31201 29.3908 7.31201C34.1456 7.31201 38 11.1383 38 15.8583Z" fill="#F79E1B"/>
</g>
<defs>
<clipPath id="clip0_2253_3831">
<rect width="48" height="32" fill="white"/>
</clipPath>
</defs>
</svg>
