<svg width="48" height="32" viewBox="0 0 48 32" fill="none" xmlns="http://www.w3.org/2000/svg">
<g clip-path="url(#clip0_2253_3806)">
<rect width="48" height="32" rx="2" fill="white"/>
<g clip-path="url(#clip1_2253_3806)">
<path d="M14.0649 10.946C14.4373 10.4672 14.7033 9.82877 14.6235 9.19037C14.0649 9.21697 13.3999 9.56277 13.0009 10.015C12.6551 10.414 12.3359 11.079 12.4157 11.6908C13.0541 11.7706 13.6659 11.4248 14.0649 10.946ZM14.6235 11.8504C13.7191 11.7972 12.9477 12.3558 12.5221 12.3558C12.0965 12.3558 11.4314 11.877 10.7132 11.877C9.78224 11.9036 8.93103 12.409 8.45223 13.2602C7.49462 14.936 8.18623 17.4098 9.14383 18.7664C9.59604 19.4314 10.1546 20.1762 10.8728 20.1496C11.5644 20.123 11.8305 19.6974 12.6551 19.6974C13.4797 19.6974 13.7191 20.1496 14.4639 20.123C15.2087 20.0964 15.6875 19.458 16.1397 18.7664C16.6717 17.995 16.8845 17.2502 16.8845 17.2236C16.8579 17.197 15.4215 16.665 15.4215 15.0158C15.3949 13.6326 16.5387 12.9676 16.5919 12.941C15.9801 11.9834 14.9693 11.877 14.6235 11.8504Z" fill="black"/>
<path d="M22.4438 9.96179C24.4123 9.96179 25.7689 11.3184 25.7689 13.2602C25.7689 15.2286 24.3857 16.5852 22.3906 16.5852H20.236V20.0167H18.6666V9.96179H22.4438ZM20.236 15.2818H22.0182C23.3749 15.2818 24.1463 14.537 24.1463 13.2868C24.1463 12.01 23.3749 11.2918 22.0182 11.2918H20.2094V15.2818H20.236ZM26.1679 17.9684C26.1679 16.6916 27.1521 15.8936 28.9077 15.7872L30.9293 15.6808V15.1222C30.9293 14.2976 30.3707 13.8188 29.4663 13.8188C28.5885 13.8188 28.0565 14.2444 27.9235 14.8828H26.4871C26.5669 13.5528 27.7107 12.5686 29.5195 12.5686C31.3017 12.5686 32.4455 13.4996 32.4455 14.9892V20.0433H31.0091V18.8462H30.9825C30.5569 19.6709 29.6259 20.1763 28.6683 20.1763C27.1787 20.1763 26.1679 19.2718 26.1679 17.9684ZM30.9293 17.3034V16.7182L29.1205 16.8246C28.2161 16.8778 27.7107 17.2768 27.7107 17.9152C27.7107 18.5536 28.2427 18.9792 29.0407 18.9792C30.1047 18.9792 30.9293 18.261 30.9293 17.3034ZM33.7755 22.7565V21.5329C33.8819 21.5595 34.1479 21.5595 34.2543 21.5595C34.9459 21.5595 35.3183 21.2669 35.5577 20.5221C35.5577 20.4955 35.6907 20.0699 35.6907 20.0699L33.0307 12.7282H34.6533L36.5153 18.7132H36.5419L38.4039 12.7282H40L37.2601 20.4689C36.6217 22.2511 35.9035 22.8097 34.3873 22.8097C34.2809 22.7831 33.9085 22.7831 33.7755 22.7565Z" fill="black"/>
</g>
</g>
<defs>
<clipPath id="clip0_2253_3806">
<rect width="48" height="32" fill="white"/>
</clipPath>
<clipPath id="clip1_2253_3806">
<rect width="32" height="32" fill="white" transform="translate(8)"/>
</clipPath>
</defs>
</svg>
