<svg width="24" height="24" viewBox="0 0 24 24" fill="none" xmlns="http://www.w3.org/2000/svg">
<path d="M2.77148 4.86792C3.00586 4.54565 3.44531 4.48706 3.73828 4.75073L21.082 18.3445C21.4043 18.5789 21.4629 19.0183 21.1992 19.3113C20.9648 19.6335 20.5254 19.6921 20.2324 19.4285L2.88867 5.83472C2.56641 5.60034 2.50781 5.16089 2.77148 4.86792Z" fill="#FCFEFF"/>
<path d="M9.48214 4.19995H15.5179C15.8951 4.19995 16.2143 4.52222 16.2143 4.90308C16.2143 5.31323 15.8951 5.6062 15.5179 5.6062H15.2857V10.5867L18.7098 16.1824C18.8839 16.5046 19 16.8562 19 17.2371C19 18.321 18.1004 19.2 17.0268 19.2H7.9442C6.87054 19.2 6 18.321 6 17.2371C6 16.8562 6.08705 16.5046 6.29018 16.1824L9.71429 10.5867V5.6062H9.48214C9.07589 5.6062 8.78571 5.31323 8.78571 4.90308C8.78571 4.52222 9.07589 4.19995 9.48214 4.19995ZM13.8929 5.6062H11.1071V10.7625C11.1071 10.9089 11.0491 11.0261 10.9911 11.1433L9.51116 13.575H15.4598L13.9799 11.1433C13.9219 11.0261 13.8929 10.9089 13.8929 10.7625V5.6062ZM7.45089 16.9441C7.42188 17.032 7.39286 17.1199 7.39286 17.2371C7.39286 17.5593 7.625 17.7937 7.9442 17.7937H17.0268C17.346 17.7937 17.5781 17.5593 17.5781 17.2371C17.5781 17.1199 17.5491 17.032 17.5201 16.9441L16.3304 14.9812H8.64062L7.45089 16.9441Z" fill="#FCFEFF"/>
</svg>
