<svg xmlns="http://www.w3.org/2000/svg" fill="none" viewBox="0 0 32 32" height="32" width="32">
<g clip-path="url(#clip0_3248_14827)">
<path fill="#FFB800" d="M17.204 5.75C16.9832 5.29167 16.5165 5 16.004 5C15.4915 5 15.029 5.29167 14.804 5.75L12.1249 11.2625L6.14154 12.1458C5.64154 12.2208 5.22488 12.5708 5.07071 13.05C4.91654 13.5292 5.04154 14.0583 5.39988 14.4125L9.74154 18.7083L8.71654 24.7792C8.63321 25.2792 8.84154 25.7875 9.25404 26.0833C9.66654 26.3792 10.2124 26.4167 10.6624 26.1792L16.0082 23.325L21.354 26.1792C21.804 26.4167 22.3499 26.3833 22.7624 26.0833C23.1749 25.7833 23.3832 25.2792 23.2999 24.7792L22.2707 18.7083L26.6124 14.4125C26.9707 14.0583 27.0999 13.5292 26.9415 13.05C26.7832 12.5708 26.3707 12.2208 25.8707 12.1458L19.8832 11.2625L17.204 5.75Z"></path>
</g>
<defs>
<clipPath id="clip0_3248_14827">
<rect transform="translate(4 5)" fill="white" height="21.3333" width="24"></rect>
</clipPath>
</defs>
</svg>
