<svg width="24" height="24" viewBox="0 0 24 24" fill="none" xmlns="http://www.w3.org/2000/svg">
<path d="M2.77148 4.86792C3.00586 4.54565 3.44531 4.48706 3.73828 4.75073L21.082 18.3445C21.4043 18.5789 21.4629 19.0183 21.1992 19.3113C20.9648 19.6335 20.5254 19.6921 20.2324 19.4285L2.88867 5.83472C2.56641 5.60034 2.50781 5.16089 2.77148 4.86792Z" fill="#FCFEFF"/>
<path d="M12.4688 6.9187V7.8562H13.4062V6.9187H12.4688ZM12 5.51245H13.875C14.373 5.51245 14.8125 5.9519 14.8125 6.44995V8.32495C14.8125 8.85229 14.373 9.26245 13.875 9.26245H12C11.4727 9.26245 11.0625 8.85229 11.0625 8.32495V6.44995C11.0625 5.9519 11.4727 5.51245 12 5.51245ZM9.42188 12.4558L10.2422 11.9871L9.77344 11.1667L8.95312 11.6355L9.42188 12.4558ZM7.51758 11.9285C7.25391 11.489 7.40039 10.9031 7.83984 10.6394L9.48047 9.7019C9.91992 9.46753 10.5059 9.61401 10.7402 10.0535L11.6777 11.6941C11.9414 12.1335 11.7949 12.6902 11.3555 12.9539L9.71484 13.8914C9.27539 14.155 8.68945 14.0085 8.45508 13.5691L7.51758 11.9285ZM14.3438 12.5437H15.2812V11.6062H14.3438V12.5437ZM12.9375 11.1375C12.9375 10.6394 13.3477 10.2 13.875 10.2H15.75C16.248 10.2 16.6875 10.6394 16.6875 11.1375V13.0125C16.6875 13.5398 16.248 13.95 15.75 13.95H13.875C13.3477 13.95 12.9375 13.5398 12.9375 13.0125V11.1375ZM16.2188 17.2312H17.1562V16.2937H16.2188V17.2312ZM14.8125 15.825C14.8125 15.3269 15.2227 14.8875 15.75 14.8875H17.625C18.123 14.8875 18.5625 15.3269 18.5625 15.825V17.7C18.5625 18.2273 18.123 18.6375 17.625 18.6375H15.75C15.2227 18.6375 14.8125 18.2273 14.8125 17.7V15.825ZM11.5312 16.2937V17.2312H12.4688V16.2937H11.5312ZM11.0625 14.8875H12.9375C13.4355 14.8875 13.875 15.3269 13.875 15.825V17.7C13.875 18.2273 13.4355 18.6375 12.9375 18.6375H11.0625C10.5352 18.6375 10.125 18.2273 10.125 17.7V15.825C10.125 15.3269 10.5352 14.8875 11.0625 14.8875ZM6.84375 17.2312H7.78125V16.2937H6.84375V17.2312ZM5.4375 15.825C5.4375 15.3269 5.84766 14.8875 6.375 14.8875H8.25C8.74805 14.8875 9.1875 15.3269 9.1875 15.825V17.7C9.1875 18.2273 8.74805 18.6375 8.25 18.6375H6.375C5.84766 18.6375 5.4375 18.2273 5.4375 17.7V15.825Z" fill="#FCFEFF"/>
</svg>
