<svg width="48" height="32" viewBox="0 0 48 32" fill="none" xmlns="http://www.w3.org/2000/svg">
<g clip-path="url(#clip0_3152_15174)">
<rect width="48" height="32" rx="2" fill="white"/>
<path d="M26.4198 11.5972C24.6549 11.5972 23.7746 12.2154 23.0703 12.7135L23.0489 12.7268C22.9716 12.7802 22.9501 12.8869 22.9973 12.967L23.7273 14.2611C23.7617 14.3412 23.8519 14.3768 23.9292 14.3456C23.9549 14.3367 23.9764 14.3278 23.9979 14.3101L24.0537 14.2656C24.4187 13.9498 24.9683 13.474 26.3768 13.3583C27.1626 13.2916 27.8411 13.5095 28.335 13.9854C28.8846 14.5102 29.2153 15.3552 29.2153 16.2446C29.2153 17.8812 28.2791 18.913 26.7719 18.9352C25.5309 18.9308 24.6978 18.2637 24.6978 17.2764C24.6978 16.756 24.8953 16.3691 25.3462 16.0311C25.4192 15.9867 25.445 15.8888 25.402 15.8088C25.402 15.8043 25.3978 15.8043 25.3978 15.7999L24.7708 14.5769C24.7407 14.5057 24.6635 14.4657 24.5905 14.4835C24.5647 14.4879 24.5432 14.4924 24.5217 14.5057C23.8175 14.9371 22.9887 15.7643 23.036 17.2808C23.0918 19.2065 24.6463 20.6741 26.6602 20.7364H26.8921C29.2882 20.6563 31.0188 18.8196 31.0188 16.338C31.0145 14.0343 29.4042 11.5972 26.4198 11.5972ZM36.0129 18.1792C34.9265 18.1792 34.059 17.2452 34.059 16.1067C34.059 14.9682 34.9222 14.0432 36.0129 14.0432C37.1036 14.0432 37.971 14.9682 37.971 16.1067C37.971 17.2452 37.1036 18.1792 36.0129 18.1792ZM33.9388 13.1716V12.1042C33.9431 12.0686 33.9173 12.033 33.883 12.0242C33.8744 12.0242 33.8701 12.0242 33.8615 12.0242H32.0966C32.058 12.0197 32.0279 12.0464 32.0193 12.082C32.0193 12.0909 32.0193 12.0953 32.0193 12.1042V22.5553C32.015 22.5864 32.0365 22.6175 32.0666 22.6264C32.0752 22.6309 32.0837 22.6309 32.0966 22.6309H33.9903C34.029 22.6353 34.0633 22.6087 34.0676 22.5731C34.0676 22.5686 34.0676 22.5597 34.0676 22.5553V19.122H34.0977C34.3983 19.5934 35.2185 20.1627 36.292 20.1627C38.3103 20.1627 39.9893 18.4371 39.9893 16.1023C39.9893 13.8653 38.3188 12.0508 36.1932 12.0508C35.2485 12.0508 34.4541 12.5934 33.9431 13.2427L33.9388 13.1716ZM12.3135 15.4263C12.3135 15.4263 11.3988 15.204 11.0596 15.115C10.7204 15.0261 10.1321 14.8304 10.1321 14.3768C10.1321 13.9053 10.6044 13.7719 11.0896 13.7719C11.5749 13.7719 12.1074 13.892 12.1503 14.4435C12.1503 14.4835 12.1804 14.5146 12.219 14.5146C12.2233 14.5146 12.2233 14.5146 12.2276 14.5146L14.0011 14.5102C14.0397 14.5146 14.0741 14.4879 14.0784 14.4524C14.0784 14.4435 14.0784 14.4346 14.0784 14.4301C13.9667 12.6646 12.4681 12.033 11.0811 12.033C9.4364 12.033 8.23833 13.1493 8.23833 14.3857C8.23833 15.284 8.48739 16.129 10.4241 16.716C10.7633 16.8183 11.2271 16.9517 11.6307 17.0629C12.1159 17.2008 12.3736 17.4098 12.3736 17.7478C12.3736 18.1347 11.8239 18.4015 11.3001 18.4015C10.5271 18.4015 9.98176 18.108 9.93452 17.5788C9.93452 17.5388 9.90446 17.5076 9.86581 17.5076C9.86152 17.5076 9.86152 17.5076 9.85723 17.5076L8.08804 17.5165C8.04939 17.5121 8.01504 17.5343 8.01074 17.5743C8.01074 17.5832 8.01074 17.5921 8.01074 17.601C8.09233 19.2688 9.65111 20.1671 11.1068 20.1671C13.2711 20.1671 14.2544 18.9041 14.2544 17.73C14.2587 17.1696 14.1385 15.9066 12.3135 15.4263ZM15.2077 9.44919V20.0826C15.2034 20.1226 15.2292 20.1582 15.2636 20.1627C15.2721 20.1627 15.2764 20.1627 15.285 20.1627H17.1788C17.2174 20.1671 17.2518 20.1404 17.256 20.1048C17.256 20.0959 17.256 20.0915 17.256 20.0826V15.5464C17.256 14.6703 17.8229 14.0432 18.7375 14.0432C19.7381 14.0432 19.9871 14.8882 19.9871 15.751V20.0782C19.9828 20.1182 20.0086 20.1538 20.0429 20.1582C20.0515 20.1582 20.0558 20.1582 20.0644 20.1582H21.9496C21.9882 20.1627 22.0226 20.136 22.0268 20.1004C22.0268 20.0915 22.0268 20.0871 22.0268 20.0782V15.493C22.0268 15.3374 22.0226 15.1817 22.0097 15.0305C21.9753 14.5413 21.8594 14.061 21.6575 13.6118C21.2195 12.669 20.3908 12.0553 19.1455 12.0553C18.3682 12.0686 17.6425 12.4511 17.1788 13.0959L17.1315 13.1538V9.44919C17.1358 9.40916 17.11 9.37358 17.0757 9.36914C17.0671 9.36914 17.0628 9.36914 17.0542 9.36914H15.2893C15.2507 9.36469 15.2163 9.39137 15.212 9.4314C15.2077 9.43584 15.2077 9.44029 15.2077 9.44919Z" fill="#5A31F4"/>
</g>
<defs>
<clipPath id="clip0_3152_15174">
<rect width="48" height="32" fill="white"/>
</clipPath>
</defs>
</svg>
