<svg width="24" height="24" viewBox="0 0 24 24" fill="none" xmlns="http://www.w3.org/2000/svg">
<path d="M2.77148 4.86792C3.00586 4.54565 3.44531 4.48706 3.73828 4.75073L21.082 18.3445C21.4043 18.5789 21.4629 19.0183 21.1992 19.3113C20.9648 19.6335 20.5254 19.6921 20.2324 19.4285L2.88867 5.83472C2.56641 5.60034 2.50781 5.16089 2.77148 4.86792Z" fill="#FCFEFF"/>
<path d="M7.51758 5.36597L7.07812 9.55542V9.96558C7.07812 10.6394 7.57617 11.1375 8.25 11.1375H9.1875H10.125C10.7695 11.1375 11.2969 10.6394 11.2969 9.96558V9.55542L10.8281 5.36597C10.7695 4.98511 11.0625 4.63354 11.4434 4.60425C11.8242 4.54565 12.1758 4.83862 12.2051 5.21948L12.6738 9.43823L12.7031 9.46753V9.49683V9.96558C12.7031 11.4011 11.5312 12.5437 10.125 12.5437H9.89062V18.8718C9.89062 19.282 9.56836 19.575 9.1875 19.575C8.77734 19.575 8.48438 19.282 8.48438 18.8718V12.5437H8.25C6.81445 12.5437 5.67188 11.4011 5.67188 9.96558V9.49683V9.46753V9.43823L6.14062 5.21948C6.16992 4.83862 6.52148 4.54565 6.90234 4.60425C7.2832 4.63354 7.57617 4.98511 7.51758 5.36597ZM9.89062 5.27808V9.49683C9.89062 9.90698 9.56836 10.2 9.1875 10.2C8.77734 10.2 8.48438 9.90698 8.48438 9.49683V5.27808C8.48438 4.89722 8.77734 4.57495 9.1875 4.57495C9.56836 4.57495 9.89062 4.89722 9.89062 5.27808ZM15.2812 9.7312V13.0125C15.2812 13.2761 15.4863 13.4812 15.75 13.4812H17.1562V11.8406V6.21558C16.9219 6.30347 16.7168 6.44995 16.4824 6.65503C15.8965 7.15308 15.2812 8.06128 15.2812 9.7312ZM17.1562 14.8875H15.75C14.6953 14.8875 13.875 14.0671 13.875 13.0125V9.7312C13.875 5.51245 17.1562 4.57495 17.625 4.57495C18.123 4.57495 18.5625 5.0144 18.5625 5.51245V11.8406V13.4812V14.8875V18.8718C18.5625 19.282 18.2402 19.575 17.8594 19.575C17.4492 19.575 17.1562 19.282 17.1562 18.8718V14.8875Z" fill="#FCFEFF"/>
</svg>
