<svg width="16" height="16" viewBox="0 0 16 16" fill="none" xmlns="http://www.w3.org/2000/svg">
<path d="M12.6875 8.94849C12.6289 9.16333 12.4336 9.30005 12.2188 9.30005H6.49609L6.63281 9.92505H11.8672C12.1602 9.92505 12.3945 10.218 12.3164 10.511L12.2188 10.9797C12.5898 11.1555 12.8438 11.5266 12.8438 11.9563C12.8438 12.5618 12.3359 13.05 11.75 13.05C11.1445 13.05 10.6562 12.5618 10.6562 11.9563C10.6562 11.6633 10.7734 11.3899 10.9688 11.175H6.88672C7.08203 11.3899 7.21875 11.6633 7.21875 11.9563C7.21875 12.5618 6.71094 13.05 6.125 13.05C5.51953 13.05 5.03125 12.5618 5.03125 11.9563C5.03125 11.5657 5.24609 11.2141 5.57812 11.0188L4.19141 4.30005H2.84375C2.57031 4.30005 2.375 4.10474 2.375 3.8313V3.5188C2.375 3.26489 2.57031 3.05005 2.84375 3.05005H4.83594C5.05078 3.05005 5.24609 3.22583 5.30469 3.44067L5.48047 4.30005H13.1367C13.4492 4.30005 13.6641 4.59302 13.6055 4.88599L12.6875 8.94849Z" fill="#FFB800"/>
</svg>
