<svg width="24" height="24" viewBox="0 0 24 24" fill="none" xmlns="http://www.w3.org/2000/svg">
<path d="M8.86523 11.4597C9.48047 11.2546 10.125 11.1375 10.8281 11.1375H13.1719C13.5527 11.1375 13.875 11.4597 13.875 11.8406C13.875 12.2507 13.5527 12.5437 13.1719 12.5437H10.8281C10.0664 12.5437 9.36328 12.7195 8.74805 13.0125C8.95312 14.8582 10.5352 16.2937 12.4395 16.2937H12.4688C15.3398 16.2937 18.0938 13.364 18.0938 9.17456C18.0938 8.7937 18.0645 8.44214 18.0059 8.09058C17.3027 8.53003 16.4238 8.7937 15.5156 8.7937H12.4688C10.7695 8.7937 9.33398 9.93628 8.86523 11.4597ZM7.3125 12.2214C7.48828 9.52612 9.71484 7.38745 12.4688 7.38745H15.5156C16.3359 7.38745 17.0977 7.09448 17.6836 6.56714C17.7129 6.53784 17.7422 6.53784 17.7422 6.50854C17.9473 6.33276 18.123 6.12769 18.2695 5.89331C18.2988 5.83472 18.3574 5.74683 18.3867 5.65894C18.5039 5.48315 18.7969 5.48315 18.8555 5.65894C18.9141 5.77612 18.9434 5.86401 18.9727 5.9812C19.0605 6.24487 19.1484 6.50854 19.207 6.77222C19.207 6.83081 19.2363 6.8894 19.2363 6.948C19.4121 7.65112 19.5 8.41284 19.5 9.17456C19.5 13.8914 16.3652 17.7 12.498 17.7H12.4688C10.0664 17.7 8.04492 16.0886 7.45898 13.8621C6.49219 14.7703 5.90625 16.0593 5.90625 17.4656V17.9343C5.90625 18.3445 5.58398 18.6375 5.20312 18.6375C4.79297 18.6375 4.5 18.3445 4.5 17.9343V17.4656C4.5 15.2683 5.61328 13.3347 7.3125 12.2214Z" fill="#FCFEFF"/>
</svg>
